<?xml version="1.0" encoding="utf-8"?>
<!-- Generator: Adobe Illustrator 16.0.4, SVG Export Plug-In . SVG Version: 6.00 Build 0)  -->
<!DOCTYPE svg PUBLIC "-//W3C//DTD SVG 1.1//EN" "http://www.w3.org/Graphics/SVG/1.1/DTD/svg11.dtd">
<svg version="1.1" id="Calque_1" xmlns="http://www.w3.org/2000/svg" xmlns:xlink="http://www.w3.org/1999/xlink" x="0px" y="0px"
	 width="36px" height="36px" viewBox="0 0 36 36" enable-background="new 0 0 36 36" xml:space="preserve">
<rect x="0.055" y="-0.162" fill="#EB6160" width="36" height="36"/>
<g>
	<g>
		<path fill="#FFFFFF" d="M26.199,12.497h0.002c0,0,0.197,0,0.207,0c0.104,0,0.146,0.085,0.156,0.105l1.471,4.797
			c0.16,0.519,0.709,0.811,1.229,0.651c0.521-0.159,0.812-0.71,0.654-1.229c0,0-0.865-2.821-1.459-4.756
			c-0.006-0.024-0.012-0.045-0.016-0.062c-0.225-0.782-0.744-2.562-2.404-2.562h-4.092c-1.549,0-2.064,1.779-2.289,2.562
			c-0.006,0.017-1.475,4.815-1.475,4.815c-0.16,0.521,0.131,1.072,0.652,1.231c0.52,0.159,1.068-0.132,1.229-0.651l1.473-4.797
			c0.008-0.021,0.053-0.105,0.154-0.105c0.01,0,0.207,0,0.207,0H21.9c0.059,0,0.092,0.05,0.076,0.105l-2.945,9.638
			c-0.016,0.057,0,0.154,0.104,0.154h2.037c0.057,0,0.1,0.047,0.1,0.105v7.023c0,0.701,0.568,1.27,1.27,1.27s1.27-0.568,1.27-1.27
			V22.5c0-0.059,0.047-0.105,0.105-0.105h0.002h0.203h0.002c0.059,0,0.105,0.047,0.105,0.105v7.023c0,0.701,0.568,1.27,1.27,1.27
			s1.27-0.568,1.27-1.27V22.5c0-0.059,0.043-0.105,0.102-0.105h2.096c0.104,0,0.119-0.098,0.104-0.154l-2.945-9.638
			C26.107,12.546,26.141,12.497,26.199,12.497z"/>
		<circle fill="#FFFFFF" cx="24.051" cy="6.984" r="1.89"/>
		<ellipse fill="#FFFFFF" cx="11.273" cy="19.201" rx="1.938" ry="1.982"/>
		<path fill="#FFFFFF" d="M5.145,26.199c0.172,0.203,0.418,0.309,0.664,0.309c0.199,0,0.398-0.066,0.561-0.205l2.967-2.5
			c-0.625-0.738-1.355-1.072-2.209-0.414l-1.879,1.584C4.881,25.283,4.834,25.832,5.145,26.199z"/>
		<path fill="#FFFFFF" d="M15.416,30.701c0.928,0,1.678-0.75,1.678-1.676c0-0.928-0.75-1.678-1.678-1.678
			c-0.123,0-0.242,0.014-0.359,0.039l-1.332-1.51c0.785-1.275,0.914-3.348,0.65-4.678c-0.006-0.035,0.031-0.088,0.057-0.115
			c0.377-0.379,0.709-0.801,1.088-1.178c0.234-0.234,0.488-0.439,0.779-0.592c0.328-0.17,0.59-0.061,0.848,0.139
			c0.029,0.023,0.055,0.047,0.057,0.049l0.004,0.002c0.396,0.482,0.113,0.965-0.277,1.33c-0.346,0.324,0.168,0.846,0.512,0.525
			c0.627-0.588,0.873-1.367,0.477-2.086c-0.018-0.033-0.133-0.232-0.348-0.416c-0.283-0.222-0.586-0.387-0.965-0.379
			c-0.387,0.008-0.762,0.221-1.068,0.445c-0.686,0.503-1.168,1.222-1.785,1.8c-0.006,0.006-0.012,0.012-0.018,0.02
			c-0.012,0.01-0.041,0.039-0.072,0.062c0,0-3.527,2.916-5.574,4.613l-1.5,1.232l0.004,0.004H6.588v0.787
			c-0.652,0.229-1.121,0.85-1.121,1.58c0,0.928,0.752,1.678,1.678,1.678s1.678-0.75,1.678-1.678c0-0.77-0.521-1.418-1.23-1.615
			v-0.434l1.004-0.826c0.996,0.42,1.551,0.998,3.457,0.85c0.361-0.027,0.676-0.146,0.949-0.334l1.131,1.281
			c-0.244,0.291-0.393,0.668-0.393,1.078C13.738,29.951,14.49,30.701,15.416,30.701z"/>
	</g>
</g>
</svg>
