<?xml version="1.0" encoding="utf-8"?>
<!-- Generator: Adobe Illustrator 16.0.4, SVG Export Plug-In . SVG Version: 6.00 Build 0)  -->
<!DOCTYPE svg PUBLIC "-//W3C//DTD SVG 1.1//EN" "http://www.w3.org/Graphics/SVG/1.1/DTD/svg11.dtd">
<svg version="1.1" id="Calque_1" xmlns="http://www.w3.org/2000/svg" xmlns:xlink="http://www.w3.org/1999/xlink" x="0px" y="0px"
	 width="36px" height="36px" viewBox="0 0 36 36" enable-background="new 0 0 36 36" xml:space="preserve">
<rect y="0" fill="#904795" width="36" height="36"/>
<g>
	<path fill="#FFFFFF" d="M13.799,8.378c-1.42,0.575-2.691,1.421-3.785,2.511c-1.092,1.092-1.936,2.365-2.512,3.783
		c-0.555,1.371-0.836,2.819-0.836,4.305c0,1.486,0.281,2.933,0.836,4.302c0.576,1.418,1.42,2.691,2.512,3.783
		c1.094,1.092,2.365,1.938,3.785,2.512c1.369,0.557,2.816,0.838,4.303,0.838c1.484,0,2.932-0.281,4.303-0.838
		c1.418-0.574,2.691-1.42,3.781-2.512c1.094-1.092,1.938-2.365,2.514-3.783c0.557-1.369,0.838-2.816,0.838-4.302
		c0-1.485-0.281-2.934-0.838-4.305c-0.576-1.418-1.42-2.691-2.514-3.783c-1.09-1.09-2.361-1.936-3.781-2.511
		c-1.371-0.556-2.818-0.838-4.303-0.838C16.615,7.541,15.168,7.823,13.799,8.378z M9.521,23.791
		c-0.549-0.346-1.057-0.744-1.506-1.213c-0.688-1.932-0.803-4.023-0.348-6.007c0.213-0.423,0.457-0.828,0.732-1.215
		c0.084-0.12,0.164-0.245,0.254-0.361l2.58,1.527c0,0.02,0,0.041,0,0.064c-0.006,1.389,0.135,2.765,0.416,4.123
		c0,0.008,0.002,0.012,0.002,0.012l-2,3.143C9.609,23.842,9.564,23.816,9.521,23.791z M17.195,29.096
		c0.445,0.227,0.904,0.418,1.375,0.574c-2,0.088-4.018-0.381-5.803-1.404l4.328,0.77C17.127,29.057,17.162,29.078,17.195,29.096z
		 M17.18,28.314l-5.105-0.908c-0.596-0.727-1.133-1.494-1.596-2.314c-0.117-0.207-0.248-0.41-0.348-0.629l2-3.135
		c0.045,0.012,0.094,0.023,0.148,0.039c1.252,0.334,2.523,0.572,3.807,0.76c0.074,0.01,0.137,0.018,0.191,0.023l2.396,4.145
		c-0.416,0.584-0.836,1.164-1.268,1.74C17.334,28.133,17.26,28.225,17.18,28.314z M25.674,26.551
		c-0.406,0.406-0.838,0.771-1.289,1.098c-0.074-0.598-0.205-1.184-0.387-1.758l2.559-4.77c0.703-0.32,1.383-0.684,2.014-1.137
		c0.082-0.057,0.15-0.123,0.203-0.193C28.59,22.254,27.555,24.668,25.674,26.551z M25.561,20.361
		c0.096,0.182,0.189,0.365,0.283,0.553l-2.471,4.605c-0.014,0.004-0.027,0.008-0.041,0.01c-1.336,0.25-2.682,0.383-4.039,0.389
		l-2.465-4.262c0.383-0.713,0.764-1.428,1.141-2.145c0.256-0.484,0.508-0.972,0.758-1.46l5.104-0.525
		C24.453,18.442,25.045,19.379,25.561,20.361z M24.525,14.897c-0.24,0.64-0.502,1.271-0.758,1.906l-4.971,0.512
		c-0.059-0.079-0.121-0.156-0.186-0.23c-0.588-0.664-1.178-1.326-1.766-1.988c0.004-0.006,0.008-0.011,0.016-0.017
		c-0.238-0.238-0.479-0.475-0.717-0.714l1.385-4.166c0.096-0.024,0.191-0.045,0.289-0.055c0.752-0.078,1.504-0.164,2.26-0.207
		c0.461-0.027,0.924-0.043,1.395-0.01l3.424,3.859C24.777,14.161,24.664,14.534,24.525,14.897z M25.674,11.404
		c0.945,0.944,1.676,2.022,2.193,3.175c-0.639-0.441-1.324-0.803-2.043-1.098c-0.111-0.045-0.227-0.088-0.344-0.127l-3.369-3.797
		c0.023-0.166,0.035-0.328,0.041-0.494C23.436,9.584,24.635,10.366,25.674,11.404z M14.67,8.864c0.016,0.009,0.021,0.017,0.029,0.02
		c0.77,0.267,1.471,0.658,2.131,1.123l-1.293,3.893c-0.006,0.002-0.014,0.004-0.014,0.004c-0.27,0.111-0.539,0.209-0.801,0.328
		c-1.072,0.486-2.117,1.027-3.104,1.676l-2.551-1.51c0.004-0.078,0.018-0.16,0.045-0.232c0.17-0.457,0.338-0.915,0.533-1.361
		c0.148-0.346,0.32-0.678,0.506-1.004c0.119-0.134,0.246-0.266,0.375-0.396c1.211-1.212,2.645-2.071,4.168-2.579
		C14.688,8.836,14.68,8.849,14.67,8.864z"/>
</g>
</svg>
