<?xml version="1.0" encoding="utf-8"?>
<!-- Generator: Adobe Illustrator 16.0.4, SVG Export Plug-In . SVG Version: 6.00 Build 0)  -->
<!DOCTYPE svg PUBLIC "-//W3C//DTD SVG 1.1//EN" "http://www.w3.org/Graphics/SVG/1.1/DTD/svg11.dtd">
<svg version="1.1" id="Calque_1" xmlns="http://www.w3.org/2000/svg" xmlns:xlink="http://www.w3.org/1999/xlink" x="0px" y="0px"
	 width="36px" height="36px" viewBox="0 0 36 36" enable-background="new 0 0 36 36" xml:space="preserve">
<rect x="0" y="0.038" fill="#4153A1" width="36" height="36"/>
<g>
	<g>
		<path fill="#FFFFFF" d="M13.571,18.18c-1.037-0.793-2.33-1.27-3.734-1.27c-3.4,0-6.158,2.757-6.158,6.158v3.799
			c0,0.445,0.361,0.807,0.805,0.807h6.5v-3.885C10.983,21.545,11.989,19.537,13.571,18.18z"/>
	</g>
	<g>
		<path fill="#FFFFFF" d="M9.836,15.875c2.32,0,4.201-1.881,4.201-4.201s-1.881-4.201-4.201-4.201s-4.201,1.881-4.201,4.201
			S7.516,15.875,9.836,15.875z"/>
	</g>
	<g>
		<path fill="#FFFFFF" d="M18.379,18.233c-3.068,0-5.555,2.488-5.555,5.556v3.078c0,0.445,0.359,0.807,0.805,0.807h2.365h4.015
			v-3.305c0-1.865,0.787-3.547,2.041-4.742C21.07,18.761,19.789,18.233,18.379,18.233z"/>
	</g>
	<g>
		<path fill="#FFFFFF" d="M16.327,16.686c0.592,0.385,1.295,0.612,2.053,0.612c0.757,0,1.46-0.228,2.052-0.612
			c1.043-0.674,1.738-1.842,1.738-3.178c0-2.092-1.697-3.792-3.791-3.792c-2.094,0-3.789,1.7-3.789,3.792
			C14.59,14.844,15.284,16.012,16.327,16.686z"/>
	</g>
	<g>
		<path fill="#FFFFFF" d="M26.576,19.646c-2.609,0-4.725,2.115-4.725,4.723v2.498c0,0.445,0.361,0.807,0.807,0.807h1.277h6.561
			c0.445,0,0.807-0.361,0.807-0.807v-2.498C31.303,21.762,29.188,19.646,26.576,19.646z"/>
	</g>
	<g>
		<path fill="#FFFFFF" d="M24.562,18.125c0.553,0.446,1.248,0.727,2.014,0.727c0.77,0,1.463-0.28,2.018-0.727
			c0.73-0.592,1.207-1.484,1.207-2.497c0-1.78-1.443-3.224-3.225-3.224c-1.779,0-3.221,1.443-3.221,3.224
			C23.355,16.641,23.83,17.534,24.562,18.125z"/>
	</g>
</g>
</svg>
