<?xml version="1.0" encoding="utf-8"?>
<!-- Generator: Adobe Illustrator 16.0.4, SVG Export Plug-In . SVG Version: 6.00 Build 0)  -->
<!DOCTYPE svg PUBLIC "-//W3C//DTD SVG 1.1//EN" "http://www.w3.org/Graphics/SVG/1.1/DTD/svg11.dtd">
<svg version="1.1" id="Calque_1" xmlns="http://www.w3.org/2000/svg" xmlns:xlink="http://www.w3.org/1999/xlink" x="0px" y="0px"
	 width="51.02px" height="51.02px" viewBox="0 0 51.02 51.02" enable-background="new 0 0 51.02 51.02" xml:space="preserve">
<g>
	<path fill-rule="evenodd" clip-rule="evenodd" fill="#FFFFFF" d="M38.939,1.445c-0.031-0.109-0.311-0.227-0.459-0.223
		C21.854,1.695,8.201,11.097,5.418,23.363l0.311-0.247C9.678,13.113,21.039,5.589,34.904,4.307c0.346-0.031,0.688-0.219,1.016-0.326
		c0.225-0.07,0.96-0.485,1-0.501c0.509-0.334,1.471-1.095,1.867-1.413C38.901,1.976,38.998,1.657,38.939,1.445z"/>
	<g>
		<path fill-rule="evenodd" clip-rule="evenodd" fill="#FFFFFF" d="M2.242,38.091c-0.296-0.37-0.456-0.66-0.456-1.001
			c0-0.475,0.376-0.734,0.958-0.734c0.459,0,0.865,0.146,1.002,0.26c0.155-0.219,0.207-0.428,0.207-0.581
			c0-0.122-0.374-0.427-1.407-0.427c-1.051,0-1.675,0.569-1.675,1.546c0,0.432,0.177,0.855,0.551,1.318l1.124,1.446
			C2.961,40.423,3.1,40.764,3.1,41.216c0,0.65-0.307,1.075-0.928,1.075c-0.521,0-0.875-0.167-1.084-0.362
			c-0.133,0.195-0.228,0.575-0.228,0.689c0,0.172,0.417,0.521,1.34,0.521c1.4,0,1.814-0.891,1.814-1.953
			c0-0.617-0.157-1.081-0.572-1.568L2.242,38.091z"/>
		<path fill-rule="evenodd" clip-rule="evenodd" fill="#FFFFFF" d="M5.918,37.051c0.356-0.188,1.271-0.825,1.424-1.015
			c-0.036-0.235-0.18-0.606-0.364-0.606c-0.081,0-0.913,0.653-1.392,1.175C5.586,36.604,5.72,37.051,5.918,37.051z"/>
		<path fill-rule="evenodd" clip-rule="evenodd" fill="#FFFFFF" d="M7.711,39.382c0-1.118-0.417-1.712-1.261-1.712
			c-0.929,0-1.815,0.324-1.815,3.039c0,2.091,0.675,2.43,1.64,2.43c0.771,0,1.377-0.231,1.377-0.365
			c0-0.215-0.018-0.564-0.065-0.722c-0.33,0.197-0.721,0.324-1.221,0.324c-0.562,0-0.854-0.189-0.885-1.446
			c0.502,0,1.458-0.021,2.124-0.169C7.682,40.386,7.711,39.853,7.711,39.382z M6.896,40.123c-0.361,0.105-1.009,0.127-1.416,0.115
			c0.063-1.451,0.449-1.826,0.875-1.826c0.447,0,0.583,0.314,0.592,1.064C6.947,39.675,6.938,39.937,6.896,40.123z"/>
		<path fill-rule="evenodd" clip-rule="evenodd" fill="#FFFFFF" d="M10.217,38.412c0.289,0,0.516,0.093,0.688,0.186
			c0.062-0.175,0.093-0.429,0.093-0.565c0-0.155-0.432-0.362-0.854-0.362c-0.854,0-1.825,0.33-1.825,2.842
			c0,2.354,0.539,2.62,1.682,2.62c0.506,0,0.977-0.267,0.977-0.474c0-0.122-0.029-0.328-0.081-0.515
			c-0.194,0.123-0.524,0.237-0.803,0.237c-0.636,0-0.925-0.216-0.925-1.869C9.168,38.681,9.701,38.412,10.217,38.412z"/>
		<path fill-rule="evenodd" clip-rule="evenodd" fill="#FFFFFF" d="M13.898,37.997v4.191c-0.217,0.145-0.505,0.195-0.736,0.195
			c-0.548,0-0.652-0.307-0.652-1.118v-3.432c-0.846,0-0.846,0-0.846,0.163v3.228c0,1.265,0.183,1.904,1.532,1.904
			c0.558,0,1.147-0.115,1.536-0.334v-4.961C13.877,37.834,13.898,37.834,13.898,37.997z"/>
		<path fill-rule="evenodd" clip-rule="evenodd" fill="#FFFFFF" d="M17.092,37.663c-0.505,0-0.926,0.122-1.399,0.463v4.84
			c0.854,0,0.845,0,0.845-0.175l0.009-4.05c0.196-0.197,0.452-0.278,0.679-0.278c0.195,0,0.341,0.041,0.494,0.124
			c0.072-0.175,0.094-0.398,0.094-0.544C17.812,37.785,17.616,37.663,17.092,37.663z"/>
		<path fill-rule="evenodd" clip-rule="evenodd" fill="#FFFFFF" d="M18.895,35.435c-0.327,0-0.47,0.247-0.47,0.616
			c-0.011,0.487,0.153,0.642,0.417,0.65c0.309,0,0.461-0.246,0.471-0.67C19.312,35.598,19.211,35.435,18.895,35.435z"/>
		<path fill-rule="evenodd" clip-rule="evenodd" fill="#FFFFFF" d="M18.435,38.206v4.76c0.837,0,0.849,0,0.849-0.175v-4.967
			C18.606,37.824,18.435,37.824,18.435,38.206z"/>
		<path fill-rule="evenodd" clip-rule="evenodd" fill="#FFFFFF" d="M22.394,38.507c0.146,0,0.146-0.067,0.146-0.673h-1.03v-1.888
			c-0.687,0-0.839,0-0.839,0.293v1.595h-0.525c-0.158,0-0.168,0.078-0.168,0.673h0.693l0.014,3.028c0,0.946,0,1.604,0.97,1.604
			c0.401,0,0.886-0.079,0.886-0.31c0-0.193-0.031-0.409-0.064-0.524c-0.213,0.094-0.305,0.157-0.594,0.157
			c-0.372,0-0.372-0.378-0.372-0.833v-3.122H22.394z"/>
		<path fill-rule="evenodd" clip-rule="evenodd" fill="#FFFFFF" d="M24.433,37.051c0.356-0.188,1.271-0.825,1.427-1.015
			c-0.039-0.235-0.185-0.606-0.364-0.606c-0.083,0-0.918,0.653-1.396,1.175C24.1,36.604,24.234,37.051,24.433,37.051z"/>
		<path fill-rule="evenodd" clip-rule="evenodd" fill="#FFFFFF" d="M26.224,39.382c0-1.118-0.413-1.712-1.259-1.712
			c-0.928,0-1.815,0.324-1.815,3.039c0,2.091,0.675,2.43,1.64,2.43c0.771,0,1.38-0.231,1.38-0.365c0-0.215-0.021-0.564-0.069-0.722
			c-0.326,0.197-0.722,0.324-1.217,0.324c-0.564,0-0.855-0.189-0.888-1.446c0.503,0,1.46-0.021,2.124-0.169
			C26.197,40.386,26.224,39.853,26.224,39.382z M25.412,40.123c-0.363,0.105-1.012,0.127-1.417,0.115
			c0.064-1.451,0.448-1.826,0.878-1.826c0.445,0,0.582,0.314,0.593,1.064C25.466,39.675,25.455,39.937,25.412,40.123z"/>
		<path fill-rule="evenodd" clip-rule="evenodd" fill="#FFFFFF" d="M30.988,38.422c0.388,0,0.694,0.093,0.998,0.277
			c0.09-0.125,0.182-0.338,0.182-0.459c0-0.184-0.273-0.492-1.395-0.492c-1.039,0-1.584,0.395-1.584,1.124
			c0,0.36,0.165,0.72,0.566,1.099l1.037,0.985c0.309,0.266,0.413,0.522,0.413,0.757c0,0.452-0.289,0.668-0.833,0.668
			c-0.402,0-0.723-0.071-1.019-0.248c-0.104,0.177-0.153,0.413-0.153,0.567c0,0.258,0.523,0.434,1.254,0.434
			c1.045,0,1.683-0.516,1.683-1.451c0-0.492-0.161-0.816-0.597-1.25l-1.013-0.924c-0.28-0.268-0.361-0.422-0.361-0.595
			C30.167,38.583,30.506,38.422,30.988,38.422z"/>
		<path fill-rule="evenodd" clip-rule="evenodd" fill="#FFFFFF" d="M34.377,37.748c-1.068,0-1.708,0.786-1.708,2.673
			c0,2.305,0.563,2.718,1.645,2.718s1.674-0.831,1.674-2.748C35.987,38.305,35.458,37.748,34.377,37.748z M34.313,42.462
			c-0.471,0-0.728-0.321-0.728-2.021c0-1.609,0.317-2.02,0.769-2.02c0.482,0,0.716,0.338,0.716,1.979
			C35.07,42.009,34.754,42.462,34.313,42.462z"/>
		<path fill-rule="evenodd" clip-rule="evenodd" fill="#FFFFFF" d="M38.422,38.412c0.284,0,0.515,0.093,0.688,0.186
			c0.061-0.175,0.091-0.429,0.091-0.565c0-0.155-0.431-0.362-0.852-0.362c-0.857,0-1.829,0.33-1.829,2.842
			c0,2.354,0.538,2.62,1.683,2.62c0.503,0,0.979-0.267,0.979-0.474c0-0.122-0.031-0.328-0.082-0.515
			c-0.193,0.123-0.525,0.237-0.803,0.237c-0.639,0-0.928-0.216-0.928-1.869C37.369,38.681,37.906,38.412,38.422,38.412z"/>
		<path fill-rule="evenodd" clip-rule="evenodd" fill="#FFFFFF" d="M39.861,38.206v4.76c0.84,0,0.85,0,0.85-0.175v-4.967
			C40.037,37.824,39.861,37.824,39.861,38.206z"/>
		<path fill-rule="evenodd" clip-rule="evenodd" fill="#FFFFFF" d="M40.32,35.435c-0.322,0-0.469,0.247-0.469,0.616
			c-0.01,0.487,0.156,0.642,0.418,0.65c0.311,0,0.462-0.246,0.472-0.67C40.741,35.598,40.64,35.435,40.32,35.435z"/>
		<path fill-rule="evenodd" clip-rule="evenodd" fill="#FFFFFF" d="M43.429,37.663c-0.931,0-1.6,0.123-1.748,0.23
			c-0.07,0.048-0.091,0.145-0.091,0.251c0,0.066,0.011,0.34,0.11,0.521c0.308-0.15,0.956-0.243,1.409-0.243
			c0.311,0,0.53,0.125,0.53,0.626v0.883c-0.2-0.097-0.513-0.126-0.761-0.126c-0.641,0-1.298,0.241-1.298,1.695
			c0,1.589,0.697,1.647,1.428,1.639c0.651,0,1.136-0.161,1.414-0.329c0,0,0.062-1.503,0.062-3.313v-0.619
			C44.485,37.97,44.096,37.663,43.429,37.663z M43.611,42.29c-0.09,0.107-0.34,0.172-0.543,0.172c-0.391,0-0.641-0.042-0.641-0.97
			c0-0.947,0.342-1.097,0.741-1.097c0.144,0,0.342,0.021,0.471,0.095C43.64,41.266,43.611,42.29,43.611,42.29z"/>
		<path fill-rule="evenodd" clip-rule="evenodd" fill="#FFFFFF" d="M45.278,35.813v7.152c0.836,0,0.826,0,0.826-0.175V35.43
			C45.441,35.43,45.278,35.43,45.278,35.813z"/>
		<path fill-rule="evenodd" clip-rule="evenodd" fill="#FFFFFF" d="M48.715,42.376c-0.562,0-0.857-0.189-0.888-1.446
			c0.501,0,1.461-0.021,2.115-0.169c0.078-0.375,0.107-0.908,0.107-1.379c0-1.118-0.405-1.712-1.253-1.712
			c-0.926,0-1.817,0.324-1.817,3.039c0,2.091,0.677,2.43,1.641,2.43c0.771,0,1.372-0.231,1.372-0.365
			c0-0.215-0.02-0.564-0.068-0.722C49.607,42.249,49.216,42.376,48.715,42.376z M48.704,38.412c0.447,0,0.584,0.314,0.594,1.064
			c0,0.198-0.01,0.46-0.052,0.646c-0.367,0.105-1.012,0.127-1.419,0.115C47.891,38.787,48.275,38.412,48.704,38.412z"/>
	</g>
	<path fill-rule="evenodd" clip-rule="evenodd" fill="#FFFFFF" d="M15.68,27.697c0-1.335-1.014-2.437-2.313-2.574
		c0.97-0.109,1.722-0.932,1.722-1.931c0-1.074-0.869-1.943-1.941-1.943c-1.073,0-1.945,0.869-1.945,1.943
		c0,0.987,0.739,1.802,1.692,1.926c-1.338,0.101-2.394,1.218-2.394,2.579v3.993v0.002c0,0.239,0.193,0.431,0.432,0.431h4.318
		c0.237,0,0.432-0.191,0.432-0.431L15.68,27.697z"/>
	<path fill-rule="evenodd" clip-rule="evenodd" fill="#FFFFFF" d="M19.94,23.085c0.927-0.148,1.634-0.949,1.634-1.918
		c0-1.073-0.869-1.943-1.945-1.943c-1.073,0-1.941,0.87-1.941,1.943c0,0.95,0.679,1.739,1.578,1.91
		c-1.286,0.154-2.281,1.246-2.281,2.57v6.043v0.002c0,0.239,0.193,0.432,0.434,0.432h4.32c0.238,0,0.432-0.192,0.432-0.432v-6.045
		C22.17,24.342,21.198,23.263,19.94,23.085z"/>
	<path fill-rule="evenodd" clip-rule="evenodd" fill="#FFFFFF" d="M26.262,25.983c0.955-0.125,1.691-0.939,1.691-1.926
		c0-1.076-0.869-1.946-1.943-1.946c-1.072,0-1.943,0.87-1.943,1.946c0,0.997,0.754,1.82,1.722,1.93
		c-1.3,0.137-2.315,1.237-2.315,2.573v3.129v0.003c0,0.239,0.193,0.432,0.43,0.432h4.32c0.237,0,0.434-0.192,0.434-0.432v-3.132
		C28.656,27.2,27.6,26.084,26.262,25.983z"/>
	<path fill-rule="evenodd" clip-rule="evenodd" fill="#FFFFFF" d="M32.91,25.029c0.926-0.148,1.637-0.949,1.637-1.917
		c0-1.075-0.871-1.945-1.944-1.945c-1.074,0-1.946,0.87-1.946,1.945c0,0.949,0.683,1.738,1.584,1.908
		c-1.285,0.153-2.284,1.248-2.284,2.568v4.104c0,0.239,0.192,0.432,0.433,0.432h4.32c0.238,0,0.432-0.192,0.432-0.432v-4.104
		C35.141,26.286,34.17,25.206,32.91,25.029z"/>
	<path fill-rule="evenodd" clip-rule="evenodd" fill="#FFFFFF" d="M39.234,27.618c0.919-0.151,1.625-0.95,1.625-1.915
		c0-1.073-0.871-1.943-1.939-1.943c-1.076,0-1.949,0.87-1.949,1.943c0,0.946,0.681,1.734,1.58,1.907
		c-1.287,0.155-2.281,1.247-2.281,2.571v1.511c0,0.239,0.191,0.431,0.434,0.431h4.316c0.24,0,0.43-0.191,0.43-0.431l0.003-1.511
		C41.452,28.877,40.484,27.799,39.234,27.618z"/>
	<g>
		<polygon fill="#FFFFFF" stroke="#FFFFFF" stroke-width="0.0795" stroke-miterlimit="10" points="8.888,45.357 8.359,45.357 
			8.359,50.108 10.832,50.108 10.832,49.633 8.888,49.633 		"/>
		<path fill="#FFFFFF" stroke="#FFFFFF" stroke-width="0.0795" stroke-miterlimit="10" d="M13.375,49.734
			c-0.102-0.051-0.088-0.179-0.088-0.264v-2.02c0-0.083,0.088-0.956-0.961-0.956c-0.709,0-1.072,0.313-1.046,1.045h0.45
			c-0.006-0.414,0.058-0.623,0.516-0.623c0.404,0,0.558,0.152,0.558,0.554c0,0.184,0.013,0.324-0.095,0.406
			c-0.064,0.051-0.774,0.31-1.061,0.438c-0.49,0.215-0.508,0.724-0.508,0.856c0,0.64,0.203,1.033,0.908,1.033
			c0.336,0,0.66-0.259,0.78-0.571h0.013c0.051,0.482,0.21,0.521,0.636,0.502c0.038-0.013,0.075-0.02,0.114-0.026V49.74
			C13.522,49.747,13.445,49.754,13.375,49.734z M12.766,49.063c0,0.569-0.42,0.715-0.609,0.715c-0.406,0-0.496-0.229-0.496-0.581
			c0-0.242,0.077-0.503,0.312-0.61c0.268-0.127,0.545-0.234,0.793-0.382V49.063z"/>
		<polygon fill="#FFFFFF" stroke="#FFFFFF" stroke-width="0.0795" stroke-miterlimit="10" points="17.365,49.729 17.352,49.729 
			16.254,45.357 15.67,45.357 17.035,50.108 17.689,50.108 19.061,45.357 18.477,45.357 		"/>
		
			<rect x="19.521" y="45.357" fill="#FFFFFF" stroke="#FFFFFF" stroke-width="0.0795" stroke-miterlimit="10" width="0.503" height="0.635"/>
		
			<rect x="19.521" y="46.591" fill="#FFFFFF" stroke="#FFFFFF" stroke-width="0.0795" stroke-miterlimit="10" width="0.503" height="3.518"/>
		<path fill="#FFFFFF" stroke="#FFFFFF" stroke-width="0.0795" stroke-miterlimit="10" d="M21.814,46.495
			c-0.935,0-1.13,1.109-1.13,1.844c0,1.421,0.476,1.865,1.143,1.865c0.741,0,1.098-0.578,1.065-1.269h-0.47
			c0.03,0.401-0.103,0.843-0.583,0.843c-0.705,0-0.623-0.912-0.636-1.389h1.714C22.893,47.572,22.957,46.495,21.814,46.495z
			 M21.204,47.984c0.019-0.419,0.03-1.067,0.616-1.067c0.584,0,0.559,0.655,0.578,1.067H21.204z"/>
		<path fill="#FFFFFF" stroke="#FFFFFF" stroke-width="0.0795" stroke-miterlimit="10" d="M26.471,46.495
			c-0.933,0-1.127,1.109-1.127,1.844c0,1.421,0.475,1.865,1.139,1.865c0.745,0,1.102-0.578,1.07-1.269h-0.471
			c0.032,0.401-0.102,0.843-0.587,0.843c-0.704,0-0.618-0.912-0.632-1.389h1.714C27.553,47.572,27.613,46.495,26.471,46.495z
			 M25.863,47.984c0.02-0.419,0.032-1.067,0.613-1.067c0.585,0,0.561,0.655,0.578,1.067H25.863z"/>
		<path fill="#FFFFFF" stroke="#FFFFFF" stroke-width="0.0795" stroke-miterlimit="10" d="M29.669,46.495
			c-0.382,0-0.641,0.177-0.882,0.479h-0.013v-0.383h-0.487v3.518h0.5v-2.353c0-0.254,0.025-0.458,0.229-0.642
			c0.133-0.127,0.311-0.197,0.494-0.197c0.407,0,0.527,0.248,0.527,0.616v2.575h0.502v-2.715
			C30.539,46.771,30.197,46.495,29.669,46.495z"/>
		<path fill="#FFFFFF" stroke="#FFFFFF" stroke-width="0.0795" stroke-miterlimit="10" d="M34.633,45.357h-1.25v4.751h0.525V48.1
			h0.316c0.363,0,0.902,0,1.234-0.141c0.514-0.234,0.674-0.749,0.674-1.273c0-0.383-0.104-0.751-0.391-1.018
			C35.465,45.401,35,45.357,34.633,45.357z M34.423,47.622h-0.515v-1.789h0.546c0.642-0.013,1.133,0.096,1.133,0.865
			C35.594,47.515,35.146,47.616,34.423,47.622z"/>
		
			<rect x="36.762" y="45.357" fill="#FFFFFF" stroke="#FFFFFF" stroke-width="0.0795" stroke-miterlimit="10" width="0.502" height="4.751"/>
		<path fill="#FFFFFF" stroke="#FFFFFF" stroke-width="0.0795" stroke-miterlimit="10" d="M39.833,48.848
			c0,0.203-0.025,0.444-0.14,0.623c-0.137,0.2-0.36,0.308-0.602,0.308c-0.358,0-0.453-0.158-0.453-0.454v-2.733h-0.502v2.715
			c0,0.62,0.327,0.898,0.854,0.898c0.342,0,0.666-0.196,0.833-0.559h0.009v0.463h0.503v-3.518h-0.503V48.848z"/>
		<path fill="#FFFFFF" stroke="#FFFFFF" stroke-width="0.0795" stroke-miterlimit="10" d="M42.283,48.105
			c-0.346-0.14-0.721-0.196-0.721-0.654c0-0.369,0.205-0.534,0.56-0.534c0.425,0,0.58,0.197,0.56,0.616h0.488
			c0.014-0.725-0.392-1.038-1.094-1.038c-0.61,0-1.033,0.384-1.033,0.994s0.316,0.793,0.863,0.995
			c0.364,0.153,0.872,0.197,0.872,0.7c0,0.429-0.269,0.594-0.675,0.594c-0.469,0-0.617-0.264-0.599-0.695H41.03
			c0,0.241-0.013,0.473,0.196,0.753c0.183,0.268,0.566,0.375,0.877,0.368c0.727,0.007,1.196-0.412,1.196-1.083
			C43.3,48.46,42.791,48.333,42.283,48.105z"/>
	</g>
</g>
</svg>
