<?xml version="1.0" encoding="utf-8"?>
<!-- Generator: Adobe Illustrator 16.0.4, SVG Export Plug-In . SVG Version: 6.00 Build 0)  -->
<!DOCTYPE svg PUBLIC "-//W3C//DTD SVG 1.1//EN" "http://www.w3.org/Graphics/SVG/1.1/DTD/svg11.dtd">
<svg version="1.1" id="Calque_1" xmlns="http://www.w3.org/2000/svg" xmlns:xlink="http://www.w3.org/1999/xlink" x="0px" y="0px"
	 width="93.54px" height="45.35px" viewBox="0 0 93.54 45.35" enable-background="new 0 0 93.54 45.35" xml:space="preserve">
<g id="Calque_1_2_">
	<g>
		<path fill="#FFFFFF" d="M51.505,7.675c0,0.519,0.453,0.712,0.907,0.712c0.367,0,0.771-0.125,0.771-0.545
			c0-0.361-0.471-0.486-1.323-0.687c-0.69-0.16-1.358-0.387-1.358-1.166c0-1.1,0.938-1.394,1.877-1.394
			c0.94,0,1.813,0.326,1.912,1.394h-1.141c-0.034-0.454-0.37-0.579-0.804-0.579c-0.271,0-0.64,0.067-0.64,0.386
			c0,0.419,0.672,0.486,1.326,0.654c0.687,0.159,1.358,0.418,1.358,1.19c0,1.141-0.975,1.493-1.979,1.493
			c-1.005,0-1.98-0.387-2.047-1.519h1.14V7.675z"/>
		<path fill="#FFFFFF" d="M58.182,6.96c-0.201,0.169-0.603,0.195-0.974,0.261c-0.351,0.067-0.703,0.193-0.703,0.655
			c0,0.453,0.353,0.544,0.703,0.544c0.94,0,0.974-0.745,0.974-1.006V6.96z M55.431,6.089c0.066-1.101,1.074-1.46,2.047-1.46
			c0.872,0,1.91,0.194,1.91,1.234v2.238c0,0.386,0.035,0.772,0.152,0.965h-1.19c-0.034-0.126-0.069-0.285-0.102-0.419
			c-0.402,0.395-0.939,0.554-1.459,0.554c-0.822,0-1.459-0.42-1.459-1.302c0-0.97,0.738-1.198,1.459-1.29
			c0.719-0.102,1.393-0.102,1.393-0.587c0-0.521-0.37-0.58-0.771-0.58c-0.471,0-0.756,0.193-0.789,0.646H55.431z"/>
		<path fill="#FFFFFF" d="M60.696,4.764h1.14v0.579h0.035c0.301-0.487,0.806-0.714,1.342-0.714c1.258,0,1.576,0.714,1.576,1.786
			v2.651h-1.206V6.643c0-0.713-0.185-1.074-0.739-1.074c-0.638,0-0.905,0.361-0.905,1.233v2.265h-1.242V4.764z"/>
		<path fill="#FFFFFF" d="M67.574,4.764h0.872v0.805h-0.872v2.141c0,0.393,0.102,0.484,0.52,0.484c0.136,0,0.219,0,0.353-0.032
			v0.938c-0.185,0.035-0.436,0.035-0.672,0.035c-0.704,0-1.375-0.159-1.375-1.032V5.535h-0.704V4.729h0.704V3.431h1.208v1.333
			H67.574z"/>
		<path fill="#FFFFFF" d="M71.564,4.21H70.76l0.805-1.199h1.293L71.564,4.21z M72.338,6.45c-0.102-0.621-0.353-0.915-0.938-0.915
			c-0.737,0-0.976,0.588-0.976,0.915H72.338z M70.393,7.188c0.031,0.746,0.401,1.106,1.072,1.106c0.486,0,0.873-0.293,0.939-0.552
			h1.04c-0.334,1.005-1.04,1.459-2.012,1.459c-1.358,0-2.196-0.939-2.196-2.271c0-1.294,0.902-2.267,2.196-2.267
			c1.459,0,2.179,1.232,2.113,2.558h-3.153V7.188z"/>
		<path fill="#FFFFFF" d="M50.869,16.17h-0.723v-0.781h0.723v-0.326c0-0.747,0.469-1.292,1.441-1.292c0.2,0,0.438,0.034,0.62,0.034
			v0.872c-0.135-0.032-0.284-0.032-0.42-0.032c-0.335,0-0.451,0.134-0.451,0.486v0.258h0.807v0.781H52.06v3.53h-1.19V16.17z"/>
		<path fill="#FFFFFF" d="M56.471,17.562c-0.201,0.159-0.619,0.193-0.974,0.261c-0.37,0.067-0.722,0.192-0.722,0.645
			c0,0.454,0.352,0.554,0.722,0.554c0.938,0,0.974-0.745,0.974-1.006V17.562z M53.752,16.689c0.051-1.107,1.057-1.458,2.031-1.458
			c0.871,0,1.912,0.191,1.912,1.232v2.229c0,0.387,0.032,0.78,0.15,0.973h-1.191c-0.033-0.125-0.05-0.292-0.084-0.418
			c-0.403,0.385-0.939,0.553-1.477,0.553c-0.804,0-1.439-0.427-1.439-1.299c0-0.974,0.736-1.199,1.439-1.301
			c0.724-0.092,1.411-0.092,1.411-0.579c0-0.52-0.37-0.587-0.789-0.587c-0.453,0-0.755,0.192-0.772,0.654H53.752z"/>
		<path fill="#FFFFFF" d="M59.021,15.355h1.141v0.588l0,0c0.319-0.453,0.737-0.712,1.323-0.712c0.555,0,1.041,0.191,1.26,0.712
			c0.27-0.396,0.722-0.712,1.309-0.712c0.905,0,1.577,0.418,1.577,1.551v2.884h-1.192v-2.465c0-0.579-0.065-1.031-0.723-1.031
			c-0.669,0-0.771,0.545-0.771,1.098v2.398h-1.207v-2.43c0-0.488,0.034-1.066-0.704-1.066c-0.234,0-0.806,0.159-0.806,1.006v2.49
			h-1.206V15.355z"/>
	</g>
	<path fill="#FFFFFF" d="M67.036,15.355h1.193v4.311h-1.193V15.355z M68.195,14.712h-1.19v-0.974h1.19V14.712z"/>
	<rect x="69.588" y="13.738" fill="#FFFFFF" width="1.206" height="5.962"/>
	<rect x="72.137" y="13.738" fill="#FFFFFF" width="1.207" height="5.962"/>
	<g>
		<path fill="#FFFFFF" d="M77.621,17.075c-0.084-0.611-0.352-0.905-0.941-0.905c-0.736,0-0.971,0.578-0.971,0.905H77.621z
			 M75.693,17.822c0.016,0.746,0.367,1.099,1.058,1.099c0.485,0,0.87-0.293,0.938-0.546h1.037c-0.318,0.999-1.037,1.451-2.01,1.451
			c-1.359,0-2.2-0.94-2.2-2.265c0-1.3,0.907-2.273,2.2-2.273c1.459,0,2.163,1.233,2.095,2.567h-3.118V17.822z"/>
		<path fill="#FFFFFF" d="M50.601,25.99h1.138v0.806l0,0c0.22-0.555,0.808-0.905,1.344-0.905c0.101,0,0.201,0.033,0.268,0.033v1.098
			c-0.102-0.032-0.301-0.032-0.419-0.032c-0.871,0-1.158,0.619-1.158,1.399v1.938h-1.207V25.99H50.601z"/>
		<path fill="#FFFFFF" d="M57.007,27.676c-0.101-0.621-0.353-0.915-0.938-0.915c-0.738,0-0.975,0.588-0.975,0.915H57.007z
			 M55.06,28.414c0.034,0.745,0.403,1.107,1.075,1.107c0.486,0,0.872-0.295,0.939-0.554h1.04c-0.319,1.007-1.04,1.459-2.013,1.459
			c-1.357,0-2.197-0.939-2.197-2.271c0-1.292,0.904-2.265,2.197-2.265c1.478,0,2.179,1.231,2.113,2.558H55.06V28.414z"/>
		<path fill="#FFFFFF" d="M60.798,25.99h0.872v0.771h-0.872v2.14c0,0.395,0.101,0.486,0.505,0.486c0.117,0,0.217,0,0.332-0.025v0.94
			c-0.182,0.024-0.435,0.024-0.669,0.024c-0.705,0-1.359-0.159-1.359-1.031v-2.566h-0.72v-0.771h0.72v-1.3h1.191V25.99z"/>
		<path fill="#FFFFFF" d="M62.677,25.99h1.14v0.806h0.034c0.235-0.555,0.806-0.905,1.392-0.905c0.103,0,0.201,0.033,0.252,0.033
			v1.098c-0.083-0.032-0.285-0.032-0.403-0.032c-0.872,0-1.171,0.619-1.171,1.399v1.938h-1.212V25.99H62.677z"/>
		<path fill="#FFFFFF" d="M69.035,28.188c-0.186,0.168-0.622,0.201-0.957,0.261c-0.369,0.067-0.724,0.192-0.724,0.655
			c0,0.451,0.354,0.545,0.724,0.545c0.938,0,0.957-0.748,0.957-1.008V28.188z M66.283,27.316c0.066-1.1,1.071-1.46,2.029-1.46
			c0.889,0,1.911,0.193,1.911,1.232v2.24c0,0.386,0.034,0.771,0.169,0.973h-1.191c-0.034-0.135-0.067-0.26-0.102-0.429
			c-0.384,0.395-0.938,0.521-1.46,0.521c-0.804,0-1.458-0.419-1.458-1.29c0-0.974,0.756-1.201,1.458-1.302
			c0.706-0.101,1.396-0.101,1.396-0.588c0-0.511-0.354-0.578-0.773-0.578c-0.454,0-0.755,0.192-0.788,0.646h-1.19V27.316z"/>
	</g>
	<path fill="#FFFFFF" d="M71.6,25.99h1.207v4.312H71.6V25.99z M72.773,25.303h-1.209v-0.965h1.209V25.303z"/>
	<g>
		<path fill="#FFFFFF" d="M75.625,25.99h0.873v0.771h-0.873v2.14c0,0.395,0.084,0.486,0.471,0.486c0.133,0,0.234,0,0.369-0.025v0.94
			c-0.201,0.024-0.472,0.024-0.688,0.024c-0.723,0-1.361-0.159-1.361-1.031v-2.566h-0.702v-0.771h0.702v-1.3h1.209V25.99z"/>
		<path fill="#FFFFFF" d="M80.391,27.676c-0.104-0.621-0.37-0.915-0.939-0.915c-0.756,0-0.973,0.588-0.973,0.915H80.391z
			 M78.479,28.414c0.031,0.745,0.367,1.107,1.057,1.107c0.485,0,0.888-0.295,0.953-0.554h1.023
			c-0.318,1.007-1.023,1.459-1.996,1.459c-1.375,0-2.212-0.939-2.212-2.271c0-1.292,0.906-2.265,2.212-2.265
			c1.443,0,2.164,1.231,2.098,2.558h-3.135V28.414z"/>
		<path fill="#FFFFFF" d="M51.505,39.493c0,0.536,0.453,0.721,0.907,0.721c0.367,0,0.771-0.118,0.771-0.553
			c0-0.353-0.471-0.487-1.323-0.672c-0.69-0.167-1.358-0.402-1.358-1.174c0-1.098,0.938-1.393,1.877-1.393
			c0.94,0,1.813,0.32,1.912,1.358h-1.141c-0.034-0.452-0.37-0.577-0.804-0.577c-0.271,0-0.64,0.059-0.64,0.378
			c0,0.436,0.672,0.503,1.326,0.652c0.687,0.169,1.358,0.42,1.358,1.191c0,1.142-0.975,1.509-1.979,1.509
			c-1.005,0-1.98-0.402-2.047-1.542h1.14V39.493z"/>
		<path fill="#FFFFFF" d="M58.416,38.302c-0.101-0.62-0.369-0.905-0.938-0.905c-0.756,0-0.973,0.588-0.973,0.905H58.416z
			 M56.471,39.056c0.034,0.739,0.387,1.091,1.074,1.091c0.469,0,0.871-0.284,0.938-0.553h1.023c-0.318,1.04-1.023,1.459-1.998,1.459
			c-1.373,0-2.213-0.938-2.213-2.266c0-1.308,0.907-2.262,2.213-2.262c1.443,0,2.166,1.223,2.099,2.566h-3.136V39.056z"/>
		<path fill="#FFFFFF" d="M60.696,36.616h1.14v0.814h0.035c0.234-0.555,0.806-0.905,1.376-0.905c0.083,0,0.183,0.024,0.251,0.024
			v1.099c-0.1-0.035-0.285-0.035-0.42-0.035c-0.872,0-1.173,0.621-1.173,1.411v1.946h-1.209V36.616z"/>
	</g>
	<polygon fill="#FFFFFF" points="66.77,40.935 65.443,40.935 63.951,36.616 65.209,36.616 66.133,39.526 66.133,39.526 
		67.036,36.616 68.229,36.616 	"/>
	<path fill="#FFFFFF" d="M69.167,36.616h1.191v4.318h-1.191V36.616z M70.358,35.938h-1.191v-0.973h1.191V35.938z"/>
	<g>
		<path fill="#FFFFFF" d="M74.652,38.117c-0.066-0.504-0.402-0.754-0.872-0.754c-0.755,0-1.007,0.788-1.007,1.392
			c0,0.621,0.22,1.359,0.973,1.359c0.537,0,0.873-0.353,0.939-0.873h1.125c-0.151,1.124-0.939,1.796-2.064,1.796
			c-1.309,0-2.182-0.923-2.182-2.215c0-1.343,0.807-2.332,2.216-2.332c0.989,0,1.929,0.546,2.03,1.661h-1.158V38.117z"/>
		<path fill="#FFFFFF" d="M79.819,38.302c-0.083-0.62-0.337-0.905-0.939-0.905c-0.739,0-0.972,0.588-0.972,0.905H79.819z
			 M77.872,39.056c0.036,0.739,0.403,1.091,1.074,1.091c0.505,0,0.873-0.284,0.938-0.553h1.042c-0.321,1.04-1.042,1.459-2.014,1.459
			c-1.341,0-2.196-0.938-2.196-2.266c0-1.308,0.904-2.262,2.196-2.262c1.478,0,2.18,1.223,2.114,2.566h-3.155V39.056z"/>
		<path fill="#FFFFFF" d="M83.038,39.493c0,0.536,0.453,0.721,0.907,0.721c0.369,0,0.771-0.118,0.771-0.553
			c0-0.353-0.471-0.487-1.359-0.672C82.67,38.822,82,38.587,82,37.815c0-1.098,0.937-1.393,1.878-1.393
			c0.938,0,1.812,0.32,1.912,1.358h-1.108c-0.032-0.452-0.367-0.577-0.804-0.577c-0.269,0-0.637,0.059-0.637,0.378
			c0,0.436,0.673,0.503,1.342,0.652c0.687,0.169,1.376,0.42,1.376,1.191c0,1.142-0.975,1.509-1.98,1.509S82,40.532,81.932,39.393
			h1.106V39.493z"/>
	</g>
	<g>
		<path fill="#FFFFFF" d="M27.554,33.12c-0.973,0-1.779,0.77-1.779,1.743c0,0.973,0.807,1.787,1.779,1.787h8.956v-3.406V32.95
			c-0.436,0.103-0.82,0.17-1.275,0.17H27.554z"/>
		<path fill="#FFFFFF" d="M0.683,0.805v42.983h42.972V0.805H0.683z M27.52,40.214c-2.952,0-5.301-2.466-5.301-5.409
			c0-2.951,2.349-5.283,5.301-5.283h0.587h1.661h5.401c0.703,0,1.341-0.588,1.341-1.334c0-0.713-0.604-1.324-1.341-1.324H9.204
			c-0.737,0-1.376,0.586-1.376,1.324c0,0.713,0.639,1.334,1.376,1.334h7.646c2.951,0,5.335,2.332,5.335,5.283
			c0,2.943-2.078,5.409-5.098,5.409H4.256v-3.598h12.629c0.973,0,1.762-0.713,1.762-1.719c0-0.973-0.722-1.812-1.727-1.812H9.169
			c-2.717,0-4.913-2.205-4.913-4.93c0-2.72,2.196-4.925,4.913-4.925h11.172l-0.034-8.973c0-3.438-2.799-6.257-6.272-6.257
			c-3.456,0-6.206,2.692-6.272,6.155v9.041H4.187V4.438h3.575v2.264c1.677-1.393,3.958-2.264,6.307-2.264
			c3.32,0,6.272,1.651,8.052,4.176c1.944-2.718,4.595-4.176,8.05-4.176c5.449,0,9.863,4.437,9.863,9.878v8.882h-3.556v-8.939
			c0-3.405-2.853-6.257-6.341-6.257c-3.422,0-6.138,2.785-6.138,6.257v8.973h11.235c2.684,0,4.833,2.205,4.833,4.925v8.461
			c0,0-0.102,3.598,3.419,3.598H27.52z"/>
	</g>
</g>
<rect x="49.395" y="0.805" fill="#FFFFFF" width="42.971" height="0.683"/>
<rect x="49.395" y="11.435" fill="#FFFFFF" width="42.971" height="0.683"/>
<rect x="49.395" y="22.064" fill="#FFFFFF" width="42.971" height="0.682"/>
<rect x="49.395" y="32.693" fill="#FFFFFF" width="42.971" height="0.683"/>
<rect x="49.395" y="43.179" fill="#FFFFFF" width="42.971" height="0.682"/>
</svg>
