<?xml version="1.0" encoding="utf-8"?>
<!-- Generator: Adobe Illustrator 16.0.4, SVG Export Plug-In . SVG Version: 6.00 Build 0)  -->
<!DOCTYPE svg PUBLIC "-//W3C//DTD SVG 1.1//EN" "http://www.w3.org/Graphics/SVG/1.1/DTD/svg11.dtd">
<svg version="1.1" id="Calque_1" xmlns="http://www.w3.org/2000/svg" xmlns:xlink="http://www.w3.org/1999/xlink" x="0px" y="0px"
	 width="102.05px" height="51.02px" viewBox="0 0 102.05 51.02" enable-background="new 0 0 102.05 51.02" xml:space="preserve">
<g>
	<polygon fill="#D02A62" points="99.294,1.805 0.473,1.805 0.473,36.321 29.977,36.321 29.977,50.043 43.698,36.321 99.294,36.321 	
		"/>
	<g>
		<g>
			<path fill="#FFFFFF" d="M7.747,14.669c0.437-0.631,1.007-1.132,1.7-1.491c0.689-0.36,1.532-0.542,2.499-0.542
				c0.507,0,0.978,0.081,1.398,0.244c0.428,0.163,0.824,0.374,1.178,0.624c0.353,0.254,0.663,0.53,0.917,0.824
				c0.255,0.293,0.461,0.586,0.607,0.867l0.06,0.109h0.56L16.7,15.14c0.088-0.401,0.192-0.791,0.313-1.161
				c0.118-0.365,0.256-0.721,0.408-1.056l0.066-0.143l-0.115-0.104c-0.452-0.412-1.16-0.769-2.169-1.089
				c-0.987-0.312-2.115-0.471-3.358-0.471c-1.086,0-2.165,0.17-3.21,0.506c-1.048,0.337-1.989,0.87-2.8,1.582
				c-0.811,0.713-1.477,1.63-1.977,2.725c-0.501,1.095-0.758,2.414-0.758,3.923c0,1.576,0.25,2.93,0.74,4.024
				c0.491,1.098,1.145,2.002,1.945,2.691c0.799,0.69,1.71,1.188,2.704,1.481c0.987,0.287,1.979,0.436,2.953,0.436
				c1.091,0,2.157-0.2,3.171-0.597c1.006-0.393,1.865-0.876,2.548-1.436l0.073-0.06l0.005-0.098
				c0.021-0.557,0.087-1.109,0.195-1.642l0.031-0.149l-0.444-0.272l-0.115,0.137c-0.277,0.328-0.609,0.641-0.985,0.926
				c-0.378,0.288-0.789,0.538-1.221,0.749c-0.435,0.211-0.88,0.378-1.335,0.5c-0.447,0.12-0.895,0.182-1.319,0.182
				c-1.826,0-3.225-0.58-4.16-1.721c-0.944-1.154-1.425-2.897-1.425-5.188c0-1.029,0.105-1.997,0.313-2.876
				C6.98,16.069,7.308,15.305,7.747,14.669z"/>
			<path fill="#FFFFFF" d="M33.833,26.673c-0.422,0.042-0.769,0.001-0.943-0.165c-0.146-0.137-0.255-0.312-0.334-0.519
				c-0.08-0.217-0.126-0.471-0.136-0.755c-0.013-0.305-0.018-0.594-0.018-0.865c0-1.438,0.023-2.811,0.068-4.082
				c0.044-1.291,0.066-2.601,0.066-3.894c0-0.777-0.144-1.502-0.426-2.157c-0.281-0.65-0.675-1.216-1.169-1.679
				c-0.492-0.463-1.095-0.822-1.789-1.07c-0.69-0.247-1.458-0.371-2.279-0.371c-0.911,0-1.811,0.14-2.674,0.419
				c-0.864,0.279-1.819,0.822-2.841,1.608l-0.083,0.064v2.097h0.701l0.059-0.111c0.357-0.688,0.907-1.235,1.638-1.624
				c0.736-0.392,1.541-0.593,2.396-0.593c0.632,0,1.178,0.115,1.615,0.338c0.436,0.225,0.794,0.521,1.063,0.881
				c0.274,0.363,0.476,0.8,0.602,1.293c0.128,0.506,0.194,1.041,0.194,1.591c0,0.318-0.031,0.578-0.092,0.774
				c-0.049,0.159-0.208,0.306-0.477,0.438c-0.304,0.151-0.793,0.302-1.454,0.445c-0.663,0.146-1.609,0.323-2.808,0.528
				c-1.501,0.258-2.697,0.781-3.555,1.557c-0.877,0.791-1.322,1.915-1.322,3.342c0,0.692,0.137,1.32,0.405,1.86
				c0.269,0.536,0.62,1.001,1.05,1.381c0.432,0.384,0.936,0.663,1.495,0.832c0.552,0.163,1.12,0.248,1.692,0.248
				c1.161,0,2.156-0.203,2.96-0.603c0.704-0.352,1.425-0.883,2.146-1.576c0.116,0.463,0.341,0.857,0.668,1.179
				c0.424,0.412,1.031,0.624,1.808,0.624c0.457,0,0.88-0.037,1.257-0.107c0.391-0.072,0.708-0.167,0.971-0.289l0.121-0.057v-1.263
				l-0.312,0.19C34.01,26.636,33.923,26.667,33.833,26.673z M29.536,19.702l-0.124,4.776c-0.359,0.59-0.871,1.115-1.524,1.562
				c-0.663,0.452-1.401,0.684-2.199,0.684c-0.688,0-1.296-0.252-1.861-0.769c-0.552-0.502-0.83-1.268-0.83-2.271
				c0-0.598,0.109-1.093,0.323-1.469c0.216-0.382,0.509-0.703,0.869-0.958c0.369-0.262,0.799-0.471,1.277-0.623
				c0.492-0.157,0.996-0.287,1.494-0.389c0.508-0.103,1.014-0.198,1.512-0.289C28.859,19.888,29.216,19.801,29.536,19.702z"/>
			<path fill="#FFFFFF" d="M45.422,4.858c0-0.449,0.018-0.904,0.051-1.352c0.031-0.46,0.061-0.917,0.084-1.376l0.01-0.162
				l-0.152-0.051c-0.222-0.074-0.469-0.113-0.736-0.113c-0.675,0-1.344,0.169-1.984,0.502c-0.629,0.328-1.159,0.711-1.574,1.136
				c-0.458,0.469-0.878,1.056-1.242,1.743c-0.361,0.682-0.674,1.411-0.933,2.17c-0.261,0.757-0.46,1.541-0.594,2.327
				c-0.121,0.704-0.19,1.369-0.203,1.979c-0.314-0.001-0.641-0.006-0.978-0.016c-0.414-0.012-0.824-0.019-1.225-0.019h-0.253
				l0.046,0.254c0.021,0.107,0.039,0.215,0.049,0.322c0.011,0.108,0.016,0.217,0.016,0.322c0,0.107-0.005,0.213-0.016,0.32
				c-0.01,0.109-0.027,0.215-0.049,0.323l-0.049,0.268l1.471-0.084c0.329-0.018,0.658-0.029,0.986-0.031
				c-0.002,2.412-0.013,4.843-0.033,7.227c-0.023,2.416-0.113,4.895-0.269,7.365l-0.016,0.248l0.24-0.021
				c0.507-0.045,1.001-0.068,1.473-0.068h0.71c0.237,0,0.475,0.023,0.708,0.064l0.253,0.047l-0.007-0.262
				c-0.068-2.464-0.107-4.955-0.118-7.405c-0.011-2.383-0.016-4.781-0.018-7.197c0.502,0.004,1.008,0.014,1.508,0.033
				c0.569,0.023,1.144,0.047,1.725,0.069l0.264,0.011l-0.054-0.265c-0.021-0.107-0.036-0.215-0.046-0.32
				c-0.011-0.109-0.016-0.215-0.016-0.322s0.005-0.215,0.016-0.322c0.01-0.107,0.025-0.214,0.046-0.322l0.05-0.254h-0.252
				c-0.582,0-1.156,0.007-1.727,0.019c-0.511,0.011-1.027,0.015-1.545,0.017c-0.109-0.652-0.203-1.336-0.279-2.036
				c-0.081-0.762-0.124-1.354-0.124-1.756c0-0.437,0.05-0.857,0.144-1.248c0.096-0.384,0.246-0.722,0.451-1.006
				c0.205-0.28,0.469-0.514,0.787-0.691c0.314-0.177,0.702-0.267,1.154-0.267c0.65,0,1.232,0.163,1.732,0.481l0.098,0.063
				l0.42-0.215V4.858z"/>
			<path fill="#FFFFFF" d="M60.157,1.805c-0.678,0-1.346,0.169-1.987,0.502c-0.629,0.328-1.158,0.711-1.574,1.136
				c-0.458,0.469-0.875,1.056-1.24,1.743c-0.362,0.682-0.676,1.411-0.935,2.169c-0.258,0.761-0.458,1.543-0.595,2.328
				c-0.12,0.702-0.188,1.368-0.201,1.979c-0.315-0.001-0.64-0.006-0.977-0.016c-0.415-0.012-0.824-0.019-1.228-0.019h-0.252
				l0.048,0.254c0.021,0.107,0.036,0.215,0.046,0.322c0.012,0.107,0.017,0.215,0.017,0.322s-0.005,0.215-0.017,0.32
				c-0.01,0.107-0.025,0.215-0.046,0.322l-0.052,0.269l1.472-0.084c0.33-0.018,0.66-0.029,0.986-0.031
				c-0.001,2.434-0.012,4.866-0.033,7.227c-0.023,2.418-0.113,4.896-0.268,7.365l-0.016,0.248l0.24-0.021
				c0.507-0.045,1.002-0.068,1.473-0.068h0.709c0.237,0,0.477,0.023,0.709,0.064l0.252,0.047l-0.007-0.262
				c-0.065-2.466-0.107-4.959-0.118-7.405c-0.01-2.383-0.016-4.781-0.016-7.197c0.5,0.004,1.006,0.014,1.508,0.033
				c0.568,0.023,1.143,0.047,1.725,0.069l0.261,0.011l-0.053-0.265c-0.019-0.107-0.034-0.215-0.045-0.322s-0.015-0.213-0.015-0.32
				s0.004-0.214,0.015-0.322c0.011-0.107,0.026-0.214,0.048-0.322l0.049-0.254h-0.253c-0.581,0-1.157,0.007-1.729,0.019
				c-0.509,0.011-1.023,0.015-1.543,0.017c-0.108-0.645-0.199-1.328-0.278-2.036c-0.082-0.762-0.125-1.354-0.125-1.756
				c0-0.436,0.048-0.855,0.145-1.25c0.094-0.382,0.243-0.719,0.451-1.003c0.203-0.28,0.468-0.515,0.785-0.692
				c0.314-0.177,0.703-0.267,1.156-0.267c0.647,0,1.23,0.163,1.729,0.481l0.099,0.063l0.42-0.215V4.858
				c0-0.447,0.017-0.903,0.05-1.352c0.035-0.459,0.062-0.917,0.085-1.376l0.008-0.161l-0.15-0.052
				C60.671,1.844,60.424,1.805,60.157,1.805z"/>
			<path fill="#FFFFFF" d="M71.544,11.337c-0.243-0.1-0.438-0.159-0.599-0.184c-0.155-0.025-0.342-0.037-0.55-0.037
				c-1.567,0-3.004,1.084-4.273,3.226c0.002-0.233,0.006-0.471,0.013-0.715c0.01-0.475,0.062-1.125,0.149-1.933l0.032-0.285
				l-0.275,0.052c-0.245,0.046-0.477,0.085-0.697,0.12c-0.475,0.072-0.895,0.058-1.277,0c-0.221-0.035-0.452-0.074-0.695-0.12
				l-0.258-0.05l0.012,0.269c0.067,1.502,0.107,2.847,0.117,3.997c0.011,1.162,0.018,2.189,0.018,3.079v1.096
				c0,1.938-0.007,3.574-0.018,4.909c-0.01,1.321-0.049,2.381-0.115,3.149l-0.023,0.256l0.251-0.024c0.824-0.087,1.79-0.095,2.702,0
				l0.263,0.027L66.284,27.9c-0.065-0.494-0.107-1.146-0.116-1.942c-0.012-0.81-0.018-1.978-0.018-3.505v-3.766
				c0-0.64,0.077-1.249,0.228-1.809c0.149-0.556,0.364-1.04,0.641-1.442c0.271-0.394,0.609-0.712,1.004-0.947
				c0.634-0.374,1.472-0.463,2.255-0.188c0.354,0.126,0.502,0.239,0.561,0.312l0.125,0.153l0.476-0.352v-0.108
				c0-0.457,0.013-0.965,0.034-1.515c0.021-0.531,0.084-0.926,0.185-1.176l0.081-0.2L71.544,11.337z"/>
			<ellipse fill="#FFFFFF" cx="47.646" cy="19.828" rx="2.639" ry="2.7"/>
		</g>
		<g>
			<ellipse fill="#E0781D" cx="99.147" cy="19.828" rx="2.433" ry="2.489"/>
			<ellipse fill="#6A2962" cx="85.778" cy="19.828" rx="2.435" ry="2.489"/>
			<path fill="#0062AE" d="M70.012,19.828c0-1.374,1.088-2.489,2.431-2.489c1.347,0,2.435,1.115,2.435,2.489
				c0,1.373-1.088,2.486-2.435,2.486C71.1,22.314,70.012,21.201,70.012,19.828z"/>
			<ellipse fill="#0D9088" cx="92.445" cy="19.828" rx="2.433" ry="2.489"/>
			<ellipse fill="#158651" cx="79.112" cy="19.828" rx="2.433" ry="2.489"/>
		</g>
	</g>
</g>
</svg>
