<?xml version="1.0" encoding="utf-8"?>
<!-- Generator: Adobe Illustrator 16.0.4, SVG Export Plug-In . SVG Version: 6.00 Build 0)  -->
<!DOCTYPE svg PUBLIC "-//W3C//DTD SVG 1.1//EN" "http://www.w3.org/Graphics/SVG/1.1/DTD/svg11.dtd">
<svg version="1.1" id="Calque_1" xmlns="http://www.w3.org/2000/svg" xmlns:xlink="http://www.w3.org/1999/xlink" x="0px" y="0px"
	 width="283.46px" height="85.04px" viewBox="0 0 283.46 85.04" enable-background="new 0 0 283.46 85.04" xml:space="preserve">
<path fill="#00C6AE" d="M211.144,22.804c-4.151,1.479-7.857,4.652-10.062,8.139c-2.499,3.951-3.302,6.793-3.345,11.379
	c-0.049,5.229,1.344,9.303,4.126,13.709c3.744,5.926,9.205,9.756,15.417,12.818c3.756,1.854,7.548,3.297,11.752,3.654
	c4.046,0.344,9.199,0.643,13.145-0.561c5.146-1.57,9.5-5.014,12.64-9.277c1.45-1.969,2.76-3.881,3.625-6.182
	c0.919-2.447,0.944-5.066,1.217-7.641c0.507-4.766-1.101-7.982-2.933-12.225c-1.76-4.07-5.188-6.455-8.702-8.812
	c-2.324-1.557-4.978-2.775-7.494-4.004c-2.165-1.055-4.647-1.936-7.211-2.244c-3.209-0.385-6.808-0.336-9.945-0.598
	C220.298,20.704,216.71,20.821,211.144,22.804"/>
<g>
	<path fill="#FFFFFF" d="M233.94,28.605c-0.158-1.775-0.638-3.425-1.444-4.95c-0.806-1.525-1.799-2.584-2.979-3.176
		c-1.532-0.775-2.967-0.592-4.305,0.547c-1.141,1-1.984,2.73-2.535,5.189c-0.669,3.232-1.041,6.76-1.12,10.584
		c-0.629,0.092-1.514,0.16-2.653,0.205c-0.552,0-1.002,0.229-1.355,0.684c-0.355,0.455-0.531,1.002-0.531,1.639
		c0,0.638,0.196,1.161,0.588,1.57c0.395,0.409,0.865,0.615,1.417,0.615c1.18-0.046,2.023-0.092,2.535-0.137
		c0,0.957,0.039,2.414,0.118,4.371s0.186,4.074,0.323,6.35c0.138,2.277,0.227,3.938,0.267,4.986c0,0.637,0.195,1.16,0.589,1.569
		c0.394,0.41,0.865,0.616,1.417,0.616c0.55,0,1.001-0.23,1.354-0.684c0.355-0.456,0.532-1.002,0.532-1.639
		c-0.039-1.186-0.127-2.938-0.266-5.259c-0.138-2.321-0.246-4.438-0.323-6.351c-0.079-1.912-0.118-3.438-0.118-4.576
		c1.218-0.137,2.849-0.433,4.894-0.887c0.551-0.183,0.974-0.523,1.268-1.025c0.295-0.5,0.385-1.058,0.266-1.673
		c-0.118-0.616-0.383-1.093-0.797-1.435c-0.412-0.341-0.893-0.466-1.442-0.375c-1.851,0.455-3.245,0.75-4.188,0.888
		c0.077-3.142,0.412-6.122,1.001-8.946c0.274-1.41,0.649-2.298,1.12-2.663c0.12-0.091,0.256-0.091,0.414,0
		c0.431,0.183,0.854,0.695,1.268,1.537c0.412,0.841,0.679,1.833,0.797,2.97c0.077,0.547,0.312,1.036,0.706,1.469
		c0.395,0.434,0.855,0.604,1.386,0.512c0.531-0.091,0.982-0.363,1.357-0.819C233.871,29.858,234.02,29.288,233.94,28.605z"/>
	<path fill="#FFFFFF" d="M93.109,43.247h0.226c0.427,0,1.055-0.023,1.865-0.071c1.99-0.001,3.573-0.073,4.719-0.217
		c0.789-0.048,1.434-0.119,1.936-0.214c0.82-0.18,1.434-0.473,1.815-0.871c0.431-0.359,0.682-0.891,0.769-1.597
		c-0.002-0.272-0.024-0.53-0.066-0.712c-0.006-0.41-0.097-0.898-0.275-1.508c-0.363-1.18-0.849-2.336-1.441-3.43
		c-0.856-1.5-1.967-2.716-3.297-3.609c-1.297-0.867-2.791-0.955-4.465-0.266c-2.467,0.934-4.22,3.509-5.215,7.656l-0.105,0.555
		h-2.506c-0.579,0-1.041,0.209-1.412,0.637c-0.381,0.441-0.566,0.957-0.566,1.577c0,0.61,0.203,1.097,0.619,1.485
		c0.418,0.393,0.909,0.584,1.499,0.584h1.805l-0.024,0.271c-0.137,1.566-0.043,3.449,0.277,5.596
		c0.635,4.247,2.137,7.039,4.467,8.299c0.836,0.436,1.717,0.656,2.616,0.656h0.001c2.264,0,4.773-1.4,7.461-4.163
		c0.369-0.471,0.557-0.978,0.557-1.528c0-0.541-0.205-1.018-0.627-1.459c-0.848-0.879-1.936-0.843-2.861-0.055
		c-2.371,2.472-4.086,3.377-5.222,2.786c-1.108-0.629-1.878-2.322-2.36-5.182c-0.28-1.903-0.351-3.583-0.209-4.997L93.109,43.247z
		 M96.168,34.854c1.01-0.384,1.998,0.248,2.954,1.922c0.173,0.322,0.32,0.678,0.47,1.031c0.104,0.255,0.215,0.561,0.322,0.896
		c-0.908,0.081-1.793,0.13-2.616,0.16c-0.658,0.018-1.37,0.028-2.153,0.028h-0.802c-0.001,0.001-0.001,0.003-0.001,0.004
		c-0.15-0.002-0.291-0.004-0.421-0.007c0.092-0.522,0.224-0.989,0.354-1.376C94.841,36.004,95.463,35.126,96.168,34.854z"/>
	<path fill="#FFFFFF" d="M59.977,35.838l-0.117-0.062l-0.014-0.132c-0.041-0.382-0.219-0.89-1.293-0.905
		c-0.127-0.006-0.242-0.01-0.357-0.01c-1.922,0-3.625,0.961-5.061,2.854c-1.271,1.606-2.162,3.628-2.654,6.015
		c-0.017,0.081-0.023,0.157-0.037,0.237c-0.01-0.011-0.021-0.023-0.021-0.023c-0.248,1.417-0.314,2.646-0.275,3.692
		c-0.193-1.696-0.35-2.911-0.35-2.911l-0.052-0.026c-0.32-1.85-0.702-3.42-1.149-4.628c-0.711-2.239-1.728-3.607-3.028-4.078
		c-1.552-0.526-3.084-0.187-4.544,1.028c-0.956,0.811-1.883,2.051-2.754,3.684c-0.341,0.645-0.576,1.066-0.715,1.281l-0.426,1.002
		c-0.342-1.08-0.732-1.977-1.17-2.672c-1.007-1.373-2.205-1.998-3.667-1.891c-1.18,0.086-2.303,0.926-3.339,2.496
		c-0.355,0.536-0.711,1.172-1.056,1.889c-0.119,0.297-0.224,0.559-0.315,0.79l-0.136-1.007h0.001l0.01-0.027
		c-0.17-2.536-0.27-4.602-0.297-6.14c-0.032-0.489-0.21-0.895-0.541-1.229c-0.322-0.322-0.707-0.467-1.17-0.43
		c-0.479,0.035-0.864,0.219-1.181,0.561c-0.313,0.339-0.452,0.723-0.421,1.175c-0.041,0.548,0.066,2.717,0.319,6.483l0.431,6.414
		c0.099,2.044,0.242,3.893,0.428,5.499c0.009,0.131,0.033,0.364,0.076,0.716c0.044,0.364,0.071,0.629,0.082,0.791l0.057,0.842
		l0.037,0.065c0.109,0.329,0.227,0.552,0.369,0.713c0.332,0.366,0.728,0.563,1.208,0.6l0.086,0.002c0.526,0,0.938-0.22,1.259-0.674
		c0.258-0.312,0.367-0.597,0.348-0.891c0,0,0,0,0-0.001l0.051-0.003c0-0.028,0-0.101-0.01-0.241
		c0.005-0.499-0.023-1.199-0.084-2.103c-0.096-0.845-0.133-1.409-0.112-1.712c0.048-1.578,0.623-3.855,1.707-6.761
		c0.526-1.411,1.062-2.56,1.591-3.411c0.655-0.934,0.696-0.938,0.831-0.947c0.001,0,0.003,0,0.003,0c0.276,0,0.498,0.164,0.715,0.5
		c0.397,0.516,0.713,1.355,0.952,2.55c0.268,1.104,0.524,3.166,0.761,6.118c0.045,0.666,0.187,1.932,0.434,3.872
		c0.01,0.134,0.051,0.466,0.125,1.014l0.04,0.583l0.133,0.379l0.173,0.346c0.363,0.387,0.746,0.603,1.141,0.643
		c0.594,0.062,1.066-0.127,1.48-0.584c0.102-0.161,0.187-0.328,0.227-0.465c0.043-0.154,0.096-0.309,0.155-0.465l-0.024-0.365
		c-0.029-0.447-0.053-1.078-0.068-1.872c-0.015-0.802-0.029-1.433-0.04-1.894c-0.012-0.459-0.009-0.995,0.007-1.639
		c0.017-0.639,0.086-1.238,0.208-1.781c0.251-1.982,1.012-4.155,2.259-6.432c0.623-1.228,1.266-2.131,1.907-2.676
		c0.528-0.422,0.99-0.536,1.396-0.363c0.218,0.057,0.523,0.334,1.065,1.888c0.398,1.305,0.774,3.093,1.118,5.325
		c0.287,1.989,0.602,5.5,0.934,10.436c0.03,0.455,0.223,0.838,0.586,1.168c0.362,0.326,0.744,0.473,1.18,0.439
		c0.433-0.032,0.796-0.23,1.11-0.607c0.317-0.38,0.456-0.787,0.426-1.243c-0.013-0.194-0.026-0.376-0.039-0.566
		c-0.049-1.778-0.284-4.37-0.526-6.649c0.352,1.873,1.004,2.776,1.004,2.776s0-0.04,0-0.104c0.744,1.316,1.775,2.255,3.129,2.741
		c0.693,0.23,1.376,0.348,2.021,0.348h0.001c1.498,0,2.884-0.639,4.118-1.897c1.381-1.433,2.329-3.442,2.817-5.971
		c0.47-2.321,0.402-4.633-0.198-6.87C62.653,38.229,61.552,36.683,59.977,35.838z M60.524,46.649
		c-0.344,1.945-0.981,3.401-1.896,4.322c-0.659,0.663-1.388,1-2.165,1c-0.342,0-0.697-0.066-1.057-0.195
		c-0.963-0.285-1.651-1.168-2.033-2.619c-0.367-1.396-0.365-3.048,0.005-4.91c0.413-1.933,1.109-3.529,2.071-4.747
		c0.713-0.908,1.316-1.407,1.844-1.525l0.153-0.034l0.083,0.105c0.024,0.015,0.102,0.057,0.315,0.143
		c1.154,0.455,1.997,1.502,2.505,3.113C60.844,42.882,60.903,44.681,60.524,46.649z"/>
	<path fill="#FFFFFF" d="M84.887,50.283c-0.042-0.83-0.105-1.69-0.189-2.556c-0.084-0.906-0.19-1.783-0.315-2.609
		c-0.374-2.611-1.002-4.6-1.866-5.909c-0.575-0.986-1.268-1.688-2.065-2.101c-1.081-0.552-2.261-0.673-3.508-0.362
		c-1.397,0.312-2.716,1.072-3.944,2.267L73,39c0,0-1.657,1.564-3.286,4.403c-0.028-1.002-0.073-2.017-0.106-2.715
		c-0.022-0.83-0.042-1.627-0.056-2.35c-0.021-1.114-0.032-1.707-0.032-1.781c0-0.469-0.176-0.833-0.538-1.113
		c-0.382-0.295-0.83-0.439-1.37-0.439c-0.531,0-0.952,0.156-1.289,0.477c-0.332,0.319-0.494,0.672-0.494,1.076
		c0,0.109,0.021,0.717,0.064,1.82c0.041,1.113,0.072,2.354,0.094,3.722c0.021,1.364,0.054,2.646,0.096,3.847
		c0.084,2.396,0.17,4.288,0.254,5.619c0.084,0.794,0.148,1.433,0.19,1.906c0.001,0.29,0.019,0.487,0.054,0.607l0.011,0.07
		c0,0.125,0.024,0.221,0.074,0.284l0.046,0.098c0.029,0.124,0.1,0.278,0.211,0.462h0.098l0.062,0.158
		c0.059,0.153,0.228,0.29,0.5,0.406c0.306,0.133,0.636,0.199,0.98,0.199c0.57,0,1.072-0.172,1.53-0.523
		c0.116-0.172,0.231-0.371,0.343-0.594c0.062-0.199,0.102-0.486,0.102-0.818v-0.438c0-0.098,0.013-0.191,0.039-0.285
		C70.598,53.026,70.6,53.001,70.6,53l0.016-0.087c0.02-0.052,0.111-0.393,0.562-2.424l0.508-2.133l-0.006-0.148l0.012-0.037
		c0.598-1.8,1.441-3.529,2.506-5.141c1.257-1.902,2.524-3.021,3.768-3.328c0.182-0.051,0.328-0.045,0.438,0.025
		c0.298,0.137,0.578,0.436,0.855,0.912c0.605,1.042,1.086,2.689,1.428,4.895c0.168,0.945,0.297,2.011,0.383,3.16
		c0.084,1.148,0.139,2.081,0.16,2.771c0.021,0.69,0.052,1.526,0.094,2.51v1.54c0,0.47,0.176,0.833,0.538,1.113
		c0.382,0.296,0.831,0.438,1.372,0.438c0.53,0,0.951-0.155,1.288-0.477c0.331-0.317,0.493-0.67,0.493-1.075v-1.093
		c0-0.652-0.01-1.295-0.031-1.932C84.96,51.856,84.929,51.12,84.887,50.283z"/>
	<path fill="#FFFFFF" d="M187.44,50.856c-0.046-0.922-0.116-1.863-0.21-2.826c-0.094-1-0.21-1.961-0.348-2.883
		c-0.42-2.924-1.118-5.129-2.098-6.61c-0.651-1.122-1.443-1.925-2.373-2.405c-1.258-0.64-2.608-0.78-4.053-0.42
		c-2.515,0.562-4.772,2.365-6.773,5.408c-0.396,0.605-0.69,1.037-0.89,1.299c-0.007-0.205-0.013-0.396-0.02-0.607
		c-0.048-1.502-0.081-2.863-0.104-4.086c-0.024-1.221-0.035-1.873-0.035-1.953c0-0.602-0.233-1.082-0.699-1.443
		c-0.466-0.359-1.024-0.539-1.676-0.539c-0.653,0-1.187,0.2-1.606,0.6c-0.419,0.4-0.629,0.863-0.629,1.383
		c0,0.12,0.023,0.791,0.069,2.014c0.047,1.222,0.081,2.584,0.105,4.086c0.023,1.502,0.059,2.914,0.104,4.236
		c0.092,2.645,0.186,4.708,0.28,6.189c0.092,0.883,0.161,1.584,0.209,2.104c0,0.32,0.022,0.561,0.07,0.722
		c0,0.2,0.046,0.36,0.14,0.479c0.046,0.201,0.162,0.441,0.348,0.723h0.07c0.094,0.24,0.327,0.439,0.699,0.601
		c0.373,0.159,0.769,0.24,1.188,0.24c0.697,0,1.326-0.22,1.885-0.661c0.141-0.201,0.278-0.441,0.42-0.721
		c0.092-0.28,0.14-0.621,0.14-1.021v-0.48c0-0.08,0.011-0.16,0.033-0.241c0.024-0.079,0.035-0.14,0.035-0.181
		c0.048-0.12,0.256-1.021,0.629-2.703l0.42-1.742l0.14-0.602v-0.182c0.651-1.961,1.56-3.825,2.725-5.588
		c1.349-2.043,2.677-3.225,3.981-3.545c0.14-0.041,0.231-0.041,0.279,0c0.279,0.119,0.56,0.42,0.837,0.9
		c0.653,1.123,1.165,2.885,1.538,5.289c0.186,1.041,0.323,2.193,0.419,3.455c0.093,1.262,0.151,2.274,0.174,3.035
		c0.023,0.761,0.059,1.682,0.104,2.764v1.683c0,0.602,0.233,1.082,0.699,1.442c0.465,0.361,1.024,0.541,1.676,0.541
		s1.188-0.201,1.606-0.601c0.419-0.401,0.629-0.862,0.629-1.383v-1.201c0-0.722-0.011-1.433-0.035-2.134
		C187.521,52.59,187.486,51.778,187.44,50.856z"/>
	<path fill="#FFFFFF" d="M125.533,49.478c-0.038-1.045-0.097-2.116-0.177-3.209c-0.078-1.139-0.176-2.23-0.294-3.277
		c-0.354-3.324-0.946-5.828-1.771-7.512c-0.552-1.275-1.22-2.186-2.008-2.732c-1.062-0.729-2.204-0.889-3.424-0.479
		c-2.126,0.639-4.035,2.688-5.728,6.146c-0.334,0.689-0.583,1.18-0.751,1.478c-0.005-0.234-0.011-0.452-0.017-0.692
		c-0.039-1.706-0.068-3.254-0.088-4.644c-0.021-1.388-0.029-2.128-0.029-2.22c0-0.682-0.197-1.229-0.591-1.639
		s-0.866-0.613-1.417-0.613c-0.552,0-1.004,0.228-1.357,0.682c-0.355,0.455-0.531,0.979-0.531,1.57c0,0.137,0.02,0.9,0.059,2.289
		s0.068,2.936,0.089,4.643c0.02,1.708,0.049,3.312,0.089,4.815c0.078,3.004,0.156,5.35,0.234,7.034c0.08,1,0.138,1.798,0.178,2.39
		c0,0.363,0.02,0.636,0.06,0.819c0,0.228,0.038,0.41,0.118,0.547c0.039,0.227,0.137,0.499,0.295,0.819h0.06
		c0.079,0.272,0.274,0.499,0.591,0.683c0.314,0.182,0.648,0.273,1.004,0.273c0.59,0,1.121-0.25,1.594-0.751
		c0.117-0.229,0.235-0.503,0.354-0.819c0.078-0.319,0.119-0.707,0.119-1.162V53.37c0-0.09,0.008-0.181,0.029-0.272
		c0.02-0.091,0.028-0.159,0.028-0.206c0.038-0.135,0.216-1.159,0.53-3.072l0.355-1.98l0.118-0.682v-0.205
		c0.552-2.23,1.317-4.348,2.304-6.352c1.141-2.321,2.262-3.664,3.364-4.029c0.118-0.045,0.196-0.045,0.236,0
		c0.235,0.137,0.472,0.479,0.708,1.023c0.551,1.276,0.984,3.279,1.299,6.011c0.156,1.185,0.275,2.493,0.354,3.927
		c0.078,1.434,0.127,2.584,0.147,3.449c0.02,0.865,0.049,1.91,0.089,3.141v1.912c0,0.684,0.196,1.229,0.59,1.639
		s0.866,0.615,1.418,0.615c0.55,0,1.003-0.229,1.357-0.684c0.354-0.455,0.53-0.979,0.53-1.57v-1.367c0-0.818-0.01-1.625-0.027-2.422
		C125.602,51.448,125.571,50.526,125.533,49.478z"/>
	<path fill="#FFFFFF" d="M137.059,44.983c-0.134-2.176-0.209-3.825-0.228-5.043l-0.004-0.225l0.225-0.027
		c1.469-0.174,3.468-0.538,5.939-1.08c0.595-0.188,1.051-0.531,1.374-1.043c0.317-0.504,0.402-1.047,0.261-1.656
		c-0.142-0.619-0.437-1.081-0.901-1.414c-0.459-0.33-0.978-0.441-1.585-0.338c-2.232,0.539-3.955,0.9-5.104,1.07l-0.29,0.044
		l0.003-0.293c0.037-3.45,0.396-6.786,1.065-9.911c0.323-1.633,0.788-2.649,1.419-3.104c0.153-0.11,0.408-0.206,0.76-0.03
		c0.571,0.203,1.131,0.783,1.685,1.762c0.534,0.943,0.89,2.066,1.057,3.341c0.096,0.531,0.372,1.023,0.818,1.45
		c0.433,0.414,0.916,0.566,1.488,0.467c0.586-0.101,1.089-0.387,1.496-0.85c0.401-0.454,0.548-1.006,0.45-1.688
		c-0.221-1.908-0.833-3.695-1.823-5.319c-0.981-1.606-2.187-2.726-3.583-3.325c-1.812-0.784-3.447-0.568-4.997,0.662
		c-1.32,1.084-2.303,2.977-2.915,5.625c-0.748,3.527-1.141,7.436-1.166,11.611l-0.001,0.215l-0.212,0.031
		c-0.785,0.117-1.884,0.213-3.264,0.285c-0.609,0.013-1.087,0.239-1.467,0.693l-0.191-0.16l0.132,3.528l0.168-0.186
		c0.431,0.391,0.929,0.581,1.52,0.581c0.016,0,0.032,0,0.049,0c1.466-0.078,2.475-0.146,3.075-0.206l0.271-0.027l0.004,0.272
		c0.017,1.036,0.092,2.648,0.225,4.792c0.132,2.153,0.305,4.499,0.513,6.973c0.22,2.632,0.353,4.375,0.418,5.484
		c0.011,0.646,0.229,1.146,0.667,1.542c0.43,0.391,0.927,0.58,1.517,0.58c0.018,0,0.034,0,0.051,0
		c0.603-0.01,1.079-0.236,1.457-0.69c0.388-0.465,0.571-1.005,0.561-1.649c-0.069-1.305-0.211-3.246-0.42-5.762
		C137.364,49.438,137.191,47.09,137.059,44.983z"/>
	<path fill="#FFFFFF" d="M162.321,49.323c-0.052-1.236-0.105-2.104-0.156-2.511l-0.002-0.645c0-0.552-0.024-1.518-0.079-3.133
		c-0.053-0.854-0.106-1.583-0.157-2.173c-0.001-0.347-0.049-0.639-0.145-0.887l-0.009-0.025c-0.04-0.155-0.09-0.301-0.146-0.444
		l-0.007-0.021c-0.025-0.104-0.069-0.206-0.129-0.306c-0.374-0.745-0.949-1.271-1.562-1.509c0.243,0.037,0.48,0.095,0.708,0.193
		c0.093-0.054,0.183-0.116,0.268-0.187c0.484-0.396,0.768-0.859,0.865-1.42c0.09-0.529-0.08-0.979-0.519-1.377
		c-0.462-0.418-0.991-0.673-1.572-0.756c-0.202-0.012-0.424-0.018-0.646-0.018c-2.761,0-5.499,1.045-8.136,3.107
		c-2.289,1.834-4.298,4.223-5.969,7.099c-1.727,2.745-2.784,5.378-3.145,7.833c-0.459,3.158,0.252,5.373,2.113,6.582
		c1.417,0.872,2.934,1.204,4.512,0.987c1.32-0.175,2.585-0.776,3.76-1.786c1.555-1.293,3.108-3.494,4.623-6.546
		c0,0,0.39-0.491,0.769-1.007c0.08,0.87,0.176,1.749,0.176,1.749s0.01-0.011,0.011-0.012c0.157,2.06,0.364,3.955,0.627,5.626
		c0.094,0.568,0.396,1.017,0.924,1.367c0.529,0.352,1.126,0.486,1.774,0.402c0.658-0.084,1.179-0.348,1.592-0.807
		c0.398-0.445,0.548-0.912,0.456-1.427C162.751,55.06,162.482,52.386,162.321,49.323z M152.396,49.832
		c-1.278,2.522-2.5,4.294-3.631,5.267c-0.4,0.395-0.756,0.617-1.074,0.671c-0.246-0.003-0.519-0.095-0.882-0.303
		c-0.487-0.237-0.578-1.099-0.279-2.786c0.267-1.973,1.132-4.188,2.572-6.574c1.435-2.514,3.111-4.537,4.981-6.008
		c1.161-0.883,2.265-1.476,3.283-1.764l0.002-0.001c0.255-0.198,0.534-0.353,0.831-0.46c0.027-0.01,0.053-0.014,0.08-0.023
		c-1.077,0.758-1.841,2.637-1.841,2.637l-1.016,2.562C154.151,46.101,153.134,48.382,152.396,49.832z"/>
	<path fill="#FFFFFF" d="M206.555,35.646c-0.515-0.244-1.056-0.279-1.621-0.1c-1.814,0.698-3.187,1.156-4.062,1.358l-0.306,0.07
		v-0.313c0-0.684,0.035-2.952,0.109-7.141c0.073-4.149,0.108-7.22,0.108-9.387c0-0.588-0.213-1.097-0.652-1.554
		c-0.437-0.454-0.921-0.675-1.479-0.675c-0.562,0-1.046,0.221-1.48,0.674c-0.439,0.458-0.652,0.967-0.652,1.555
		c0,2.254-0.036,5.427-0.108,9.433c-0.074,4.284-0.108,6.825-0.108,7.995v0.212l-0.208,0.035c-1.501,0.253-3.266,0.327-5.248,0.229
		c-0.604,0.001-1.114,0.199-1.55,0.608c-0.432,0.406-0.642,0.912-0.642,1.545c0,0.646,0.192,1.182,0.589,1.64
		c0.387,0.448,0.867,0.665,1.47,0.665c0.707,0.033,1.375,0.051,1.998,0.051c1.246,0,2.358-0.067,3.307-0.199l0.284-0.039v0.287
		c0,5.327,0.267,10.424,0.793,15.146c0.087,0.586,0.366,1.076,0.853,1.49c0.474,0.404,0.973,0.561,1.529,0.469
		c0.566-0.092,1.035-0.381,1.431-0.884c0.392-0.501,0.541-1.028,0.455-1.612c-0.53-4.658-0.798-9.875-0.798-15.512v-0.199
		l0.194-0.044c1.515-0.343,3.398-0.922,5.601-1.719c0.559-0.224,0.95-0.599,1.19-1.144s0.262-1.102,0.064-1.698
		C207.42,36.302,207.073,35.895,206.555,35.646z"/>
	<path fill="#FFFFFF" d="M211.485,48.165c-0.916,0-1.728,0.367-2.431,1.1c-0.704,0.734-1.056,1.577-1.056,2.529
		c0,0.954,0.352,1.797,1.056,2.529c0.703,0.732,1.515,1.1,2.431,1.1c0.914,0,1.724-0.367,2.43-1.1
		c0.703-0.732,1.057-1.575,1.057-2.529c0-0.952-0.354-1.795-1.057-2.529C213.209,48.532,212.399,48.165,211.485,48.165z"/>
	<path fill="#FFFFFF" d="M247.954,37.812c-0.254-0.455-0.666-0.746-1.238-0.875c-0.572-0.127-1.091-0.082-1.557,0.137
		c-3.3,1.457-5.587,3.097-6.858,4.917c0-0.219-0.085-1.202-0.254-2.95c-0.085-0.438-0.338-0.828-0.762-1.174
		c-0.423-0.347-0.931-0.482-1.523-0.411c-0.594,0.073-1.08,0.292-1.46,0.656c-0.381,0.364-0.53,0.819-0.445,1.366
		c0.381,3.314,0.572,8.904,0.572,16.771c0,0.473,0.211,0.893,0.634,1.256c0.424,0.365,0.911,0.547,1.461,0.547
		c0.551,0,1.036-0.182,1.461-0.547c0.423-0.363,0.635-0.783,0.635-1.256V48.97c0.843-1.739,2.004-3.42,3.492-5.041
		c1.524-1.656,3.152-2.867,4.89-3.632c0.55-0.22,0.91-0.574,1.08-1.065C248.248,38.739,248.208,38.267,247.954,37.812z"/>
</g>
</svg>
