<?xml version="1.0" encoding="utf-8"?>
<!-- Generator: Adobe Illustrator 16.0.4, SVG Export Plug-In . SVG Version: 6.00 Build 0)  -->
<!DOCTYPE svg PUBLIC "-//W3C//DTD SVG 1.1//EN" "http://www.w3.org/Graphics/SVG/1.1/DTD/svg11.dtd">
<svg version="1.1" id="Calque_1" xmlns="http://www.w3.org/2000/svg" xmlns:xlink="http://www.w3.org/1999/xlink" x="0px" y="0px"
	 width="36px" height="36px" viewBox="0 0 36 36" enable-background="new 0 0 36 36" xml:space="preserve">
<rect y="0" fill="#009688" width="36" height="36"/>
<g>
	<path fill="#FFFFFF" d="M17.316,28.125h6.129h3.867h3.943c0.389,0,0.703-0.316,0.703-0.703v-11.96c0-0.221-0.104-0.43-0.279-0.562
		l0,0l-9.42-7.104c-0.252-0.189-0.596-0.189-0.848,0l-1.549,1.168l-1.549-1.168c-0.25-0.189-0.596-0.189-0.848,0l-1.508,1.139
		l-1.512-1.139c-0.25-0.189-0.596-0.189-0.846,0l-9.42,7.104C4.004,15.032,3.9,15.241,3.9,15.461v11.96
		c0,0.387,0.316,0.703,0.703,0.703h3.869h3.846h0.861v-1.408v-6.641h2.998v6.641v1.408H17.316z M30.553,26.717h-2.537V15.461
		c0-0.222-0.104-0.43-0.279-0.562l-6.703-5.055l0.803-0.605l8.717,6.572V26.717z M24.148,26.717V15.461
		c0-0.222-0.104-0.43-0.281-0.562l-6.74-5.083l0.766-0.577l8.715,6.574v10.904H24.148L24.148,26.717z"/>
</g>
</svg>
