<?xml version="1.0" encoding="utf-8"?>
<!-- Generator: Adobe Illustrator 16.0.4, SVG Export Plug-In . SVG Version: 6.00 Build 0)  -->
<!DOCTYPE svg PUBLIC "-//W3C//DTD SVG 1.1//EN" "http://www.w3.org/Graphics/SVG/1.1/DTD/svg11.dtd">
<svg version="1.1" id="Calque_1" xmlns="http://www.w3.org/2000/svg" xmlns:xlink="http://www.w3.org/1999/xlink" x="0px" y="0px"
	 width="36px" height="36px" viewBox="0 0 36 36" enable-background="new 0 0 36 36" xml:space="preserve">
<rect y="0" fill="#F4971B" width="36" height="36"/>
<path fill="#FFFFFF" d="M32.258,12.721c-4.75,0-7.385,1.215-7.494,1.267c-0.156,0.073-0.275,0.211-0.322,0.377
	c-0.045,0.146-0.022,0.3,0.046,0.438c-0.916-0.347-2.189-0.849-3.476-1.425c-2.175-0.971-3.584-0.666-5.136,0.553h-4.856
	c0.025-0.192,0.048-0.379,0.063-0.553c0.016-0.184-0.051-0.366-0.186-0.491c-1.037-0.982-5.186-1.301-6.43-1.372
	c-0.172-0.011-0.33,0.047-0.451,0.161c-0.123,0.113-0.189,0.273-0.189,0.44v10.888c0,0.334,0.271,0.605,0.605,0.605h3.629
	c0.26,0,0.494-0.168,0.574-0.418c0.012-0.037,0.064-0.197,0.142-0.439c0.139,0.144,0.288,0.3,0.448,0.465
	c0.539,0.564,1.096,1.146,1.471,1.461c2.254,1.887,4.963,3.922,5.502,4.277c0.445,0.293,1.402,0.703,2.146,0.703
	c0.596,0,1.057-0.137,1.373-0.404c0.426,0.166,0.91,0.168,1.377-0.014c0.551-0.213,1.002-0.643,1.26-1.162
	c0.477,0.102,1.021,0.029,1.518-0.219c0.486-0.246,0.836-0.619,1.01-1.057c0.482,0.027,0.977-0.145,1.391-0.496
	c0.549-0.471,0.768-1.149,0.641-1.826l0.969-0.651c0.065,0.212,0.123,0.403,0.162,0.546c0.076,0.264,0.314,0.443,0.586,0.443h3.629
	c0.332,0,0.605-0.27,0.605-0.604V13.326C32.863,12.99,32.59,12.721,32.258,12.721z M7.619,22.4H5.035v-9.636
	c1.947,0.153,4.043,0.488,4.805,0.858C9.52,16.271,8.068,20.979,7.619,22.4z M25.482,25.385c-0.235,0.203-0.553,0.269-0.734,0.152
	c-0.459-0.372-2.36-2.32-3.545-3.557c-0.23-0.24-0.613-0.248-0.857-0.018c-0.242,0.23-0.248,0.615-0.018,0.855
	c0.281,0.292,2.527,2.636,3.438,3.467c-0.067,0.264-0.314,0.429-0.438,0.492c-0.387,0.193-0.791,0.162-0.941,0.021
	c-0.004-0.003-0.009-0.003-0.013-0.006c-0.008-0.008-0.012-0.019-0.021-0.025c-0.725-0.58-2.547-2.514-2.959-2.963
	c-0.225-0.246-0.607-0.26-0.854-0.035c-0.248,0.227-0.264,0.609-0.037,0.855c0.02,0.021,1.795,1.936,2.799,2.832
	c-0.113,0.289-0.352,0.539-0.645,0.654c-0.186,0.068-0.453,0.111-0.695-0.109c-0.003-0.002-0.006-0.003-0.009-0.005
	c-0.004-0.003-0.005-0.008-0.009-0.011c-0.863-0.727-2.627-2.607-2.973-2.975c-0.229-0.244-0.613-0.26-0.855-0.029
	c-0.244,0.229-0.258,0.611-0.029,0.855c0.41,0.438,1.626,1.729,2.543,2.591c-0.079,0.012-0.167,0.021-0.288,0.021
	c-0.404,0-1.127-0.271-1.482-0.508c-0.422-0.279-3.086-2.266-5.387-4.191c-0.324-0.273-0.881-0.855-1.375-1.371
	c-0.366-0.38-0.697-0.723-0.918-0.93c0.506-1.669,1.234-4.225,1.636-6.309h3.714c-0.827,0.831-1.94,2.496-1.652,3.719
	c0.125,0.524,0.494,0.911,1.039,1.09c1.373,0.453,2.621,0.02,3.555-1.217c0.385-0.059,0.594-0.146,0.908-0.287
	c0.113-0.05,0.246-0.111,0.424-0.181c0.691,0.649,1.625,1.404,2.609,2.199c1.779,1.439,3.795,3.07,4.248,4.014
	C25.887,24.943,25.646,25.246,25.482,25.385z"/>
</svg>
