<?xml version="1.0" encoding="UTF-8" standalone="no"?>
<svg
   xmlns:dc="http://purl.org/dc/elements/1.1/"
   xmlns:cc="http://creativecommons.org/ns#"
   xmlns:rdf="http://www.w3.org/1999/02/22-rdf-syntax-ns#"
   xmlns:svg="http://www.w3.org/2000/svg"
   xmlns="http://www.w3.org/2000/svg"
   xmlns:sodipodi="http://sodipodi.sourceforge.net/DTD/sodipodi-0.dtd"
   xmlns:inkscape="http://www.inkscape.org/namespaces/inkscape"
   inkscape:export-ydpi="48"
   inkscape:export-xdpi="48"
   inkscape:export-filename="C:\Users\barba\Documents\github_sync\arbaretier\images\logo_ecoute.png"
   width="1000"
   height="1000"
   viewBox="0 0 264.58333 264.58334"
   version="1.1"
   id="svg8"
   inkscape:version="1.0 (4035a4fb49, 2020-05-01)"
   sodipodi:docname="logo_ecoute.svg">
  <defs
     id="defs2">
    <rect
       x="9.0714286"
       y="218.84821"
       width="252.11012"
       height="162.15179"
       id="rect842" />
  </defs>
  <sodipodi:namedview
     inkscape:snap-text-baseline="false"
     id="base"
     pagecolor="#ffffff"
     bordercolor="#666666"
     borderopacity="1.0"
     inkscape:pageopacity="0.0"
     inkscape:pageshadow="2"
     inkscape:zoom="0.7"
     inkscape:cx="710.75491"
     inkscape:cy="493.44232"
     inkscape:document-units="mm"
     inkscape:current-layer="text18"
     inkscape:document-rotation="0"
     showgrid="false"
     units="px"
     inkscape:window-width="2160"
     inkscape:window-height="1346"
     inkscape:window-x="-11"
     inkscape:window-y="-11"
     inkscape:window-maximized="1" />
  <metadata
     id="metadata5">
    <rdf:RDF>
      <cc:Work
         rdf:about="">
        <dc:format>image/svg+xml</dc:format>
        <dc:type
           rdf:resource="http://purl.org/dc/dcmitype/StillImage" />
        <dc:title />
      </cc:Work>
    </rdf:RDF>
  </metadata>
  <g
     inkscape:label="Calque 1"
     inkscape:groupmode="layer"
     id="layer1">
    <path
       id="path10"
       d="m 49.99771,110.30279 c 3.742499,5.07317 4.40784,11.89284 5.613758,19.95998 1.205911,8.0256 2.910826,17.29867 -0.831674,22.82926 -3.742499,5.53057 -13.015573,7.36023 -21.87282,6.98599 -8.898828,-0.33267 -17.423407,-2.91081 -22.829239,-8.4414 -5.364247,-5.5306 -7.609744,-14.05518 -7.360244,-22.33024 0.291085,-8.2335 3.035581,-16.2591 8.441411,-21.29065 5.364248,-5.07318 13.389826,-7.15235 20.791658,-6.57017 7.443412,0.58216 14.263075,3.82566 18.04715,8.85723 z"
       fill="#5770be"
       style="stroke-width:0.415832" />
    <text
       xml:space="preserve"
       id="text840"
       style="font-style:normal;font-weight:normal;font-size:10.5833px;line-height:1.25;font-family:sans-serif;white-space:pre;shape-inside:url(#rect842);fill:#000000;fill-opacity:1;stroke:none;"
       transform="matrix(1.248366,0,0,1.248366,-30.397018,-40.50426)" />
    <g
       aria-label="ecoute.app"
       id="text18"
       style="font-style:normal;font-weight:normal;font-size:51.0242px;line-height:1.25;font-family:sans-serif;fill:#000000;fill-opacity:1;stroke:none;stroke-width:0.531502">
      <path
         d="M 53.581013,135.73106 H 33.069284 q 0.408194,3.62272 2.959404,5.76573 2.55121,2.09199 6.429049,2.09199 2.449161,0 4.13296,-0.81638 1.683799,-0.86741 3.265549,-2.24507 l 2.602234,3.82682 h -0.05102 q -1.734823,1.6838 -4.643202,2.85735 -2.857356,1.17356 -5.816759,1.17356 -4.13296,0 -7.347485,-1.73482 -3.214525,-1.78585 -5.000372,-4.8473 -1.785847,-3.11248 -1.785847,-7.04134 0,-4.33706 1.836872,-7.55158 1.836871,-3.26555 4.949347,-4.94935 3.1635,-1.73482 6.888267,-1.78585 3.367597,0 6.122904,1.6838 2.806331,1.63277 4.388081,4.59218 1.632775,2.9594 1.632775,6.73519 z M 41.488277,125.32212 q -3.214525,0 -5.357541,1.53073 -2.143016,1.4797 -2.857355,4.69422 h 15.001115 v -0.35717 q -0.255121,-2.55121 -2.245065,-4.18398 -1.989944,-1.6838 -4.541154,-1.6838 z"
         style="fill:#ffffff;stroke-width:0.531502"
         id="path846" />
      <path
         d="m 62.711155,134.45545 q 0,2.60224 1.173556,4.69423 1.173557,2.09199 3.163501,3.31657 1.989944,1.17356 4.235008,1.17356 4.183985,0 7.500558,-4.08194 l 2.908379,3.5717 q -1.58175,2.19404 -4.592178,3.72476 -3.010428,1.53073 -6.378025,1.53073 -3.622718,0 -6.633146,-1.83687 -2.959403,-1.83687 -4.694226,-5.00037 -1.683799,-3.21453 -1.683799,-7.09237 0,-3.87784 1.683799,-7.04134 1.734823,-3.21452 4.694226,-5.05139 3.010428,-1.83687 6.633146,-1.83687 3.622718,0 6.531098,1.4797 2.959403,1.4797 4.439105,3.92886 l -2.908379,3.57169 q -1.224581,-1.73482 -3.418622,-2.9594 -2.143016,-1.2756 -4.13296,-1.2756 -2.398137,0 -4.337057,1.22458 -1.938919,1.17355 -3.061452,3.26555 -1.122532,2.09199 -1.122532,4.69422 z"
         style="font-style:normal;font-variant:normal;font-weight:normal;font-stretch:normal;font-size:51.0242px;font-family:'Lexend Deca';-inkscape-font-specification:'Lexend Deca';stroke-width:0.531502"
         id="path848" />
      <path
         d="m 112.31465,134.45545 q 0,3.97989 -1.78585,7.19441 -1.78584,3.1635 -4.94934,4.94935 -3.11248,1.78585 -6.888272,1.78585 -3.826815,0 -6.939291,-1.78585 -3.112476,-1.78585 -4.949347,-4.94935 -1.785847,-3.1635 -1.785847,-7.19441 0,-4.03091 1.785847,-7.19441 1.836871,-3.1635 4.949347,-4.94935 3.112476,-1.78584 6.939291,-1.78584 3.775792,0 6.888272,1.78584 3.1635,1.78585 4.94934,5.00037 1.78585,3.1635 1.78585,7.14339 z m -5.35754,0 q 0.051,-2.65326 -1.02049,-4.69422 -1.0715,-2.092 -3.01042,-3.26555 -1.8879,-1.17356 -4.235012,-1.17356 -2.347113,0 -4.286032,1.17356 -1.887896,1.17355 -3.010428,3.26555 -1.071508,2.04096 -1.020484,4.69422 -0.05102,2.60224 1.020484,4.69423 1.122532,2.09199 3.010428,3.26555 1.938919,1.17355 4.286032,1.17355 2.347112,0 4.235012,-1.17355 1.93892,-1.17356 3.01042,-3.26555 1.07151,-2.09199 1.02049,-4.69423 z"
         style="font-style:normal;font-variant:normal;font-weight:normal;font-stretch:normal;font-size:51.0242px;font-family:'Lexend Deca';-inkscape-font-specification:'Lexend Deca';stroke-width:0.531502"
         id="path850" />
      <path
         d="m 141.56348,121.08711 v 26.78771 h -5.25549 v -4.28604 q -1.32663,2.04097 -3.62272,3.41863 -2.29609,1.37765 -5.25549,1.37765 -4.23501,0 -6.83725,-2.85736 -2.55121,-2.90838 -2.55121,-7.90875 v -16.53184 h 5.2555 v 15.10316 q 0,3.31658 1.53072,5.45959 1.58175,2.14302 4.74525,2.14302 2.85736,0 4.79628,-1.78585 1.93892,-1.78584 1.93892,-4.79627 v -16.12365 z"
         style="font-style:normal;font-variant:normal;font-weight:normal;font-stretch:normal;font-size:51.0242px;font-family:'Lexend Deca';-inkscape-font-specification:'Lexend Deca';stroke-width:0.531502"
         id="path852" />
      <path
         d="m 163.7319,121.08711 v 5.10242 h -6.22496 v 21.68529 h -5.25549 v -21.68529 h -5.56164 v -5.10242 h 5.56164 v -6.83724 h 5.25549 v 6.83724 z"
         style="font-style:normal;font-variant:normal;font-weight:normal;font-stretch:normal;font-size:51.0242px;font-family:'Lexend Deca';-inkscape-font-specification:'Lexend Deca';stroke-width:0.531502"
         id="path854" />
      <path
         d="m 192.40271,135.73106 h -20.51172 q 0.40819,3.62272 2.9594,5.76573 2.55121,2.09199 6.42905,2.09199 2.44916,0 4.13296,-0.81638 1.6838,-0.86741 3.26555,-2.24507 l 2.60223,3.82682 h -0.051 q -1.73483,1.6838 -4.64321,2.85735 -2.85735,1.17356 -5.81675,1.17356 -4.13296,0 -7.34749,-1.73482 -3.21452,-1.78585 -5.00037,-4.8473 -1.78585,-3.11248 -1.78585,-7.04134 0,-4.33706 1.83687,-7.55158 1.83687,-3.26555 4.94935,-4.94935 3.1635,-1.73482 6.88827,-1.78585 3.3676,0 6.1229,1.6838 2.80633,1.63277 4.38808,4.59218 1.63278,2.9594 1.63278,6.73519 z m -12.09273,-10.40894 q -3.21453,0 -5.35754,1.53073 -2.14302,1.4797 -2.85736,4.69422 h 15.00112 v -0.35717 q -0.25512,-2.55121 -2.24507,-4.18398 -1.98994,-1.6838 -4.54115,-1.6838 z"
         style="font-style:normal;font-variant:normal;font-weight:normal;font-stretch:normal;font-size:51.0242px;font-family:'Lexend Deca';-inkscape-font-specification:'Lexend Deca';stroke-width:0.531502"
         id="path856" />
      <path
         d="m 198.10628,148.22361 q -1.07809,0 -1.64884,-0.63417 -0.53905,-0.63417 -0.53905,-1.74397 0,-0.98296 0.57076,-1.68055 0.57075,-0.69758 1.61713,-0.69758 1.07809,0 1.61713,0.63417 0.57076,0.63417 0.57076,1.74396 0,0.98297 -0.57076,1.68055 -0.57075,0.69759 -1.61713,0.69759 z"
         style="font-size:31.7085px;stroke-width:0.531502"
         id="path858" />
      <path
         d="m 219.52588,131.22785 v 16.64697 h -3.29769 v -2.56839 q -0.82442,1.17321 -2.34643,2.02934 -1.522,0.85613 -3.3611,0.85613 -2.09276,0 -3.83673,-1.1098 -1.71226,-1.1415 -2.72693,-3.10743 -1.01467,-1.99763 -1.01467,-4.4709 0,-2.50497 1.04638,-4.4709 1.04638,-1.96592 2.88547,-3.04401 1.87081,-1.1098 4.18553,-1.1098 1.64884,0 2.9806,0.7293 1.33175,0.69758 2.18788,1.80738 v -2.18789 z m -8.24421,13.95174 q 1.4903,0 2.6318,-0.72929 1.17322,-0.7293 1.80739,-2.02935 0.63417,-1.30004 0.63417,-2.91718 0,-1.58542 -0.66588,-2.85376 -0.63417,-1.30005 -1.77568,-2.02935 -1.1415,-0.72929 -2.6318,-0.72929 -1.45859,0 -2.6001,0.72929 -1.14151,0.7293 -1.77568,1.99764 -0.63417,1.26834 -0.63417,2.88547 0,1.61714 0.63417,2.91718 0.63417,1.30005 1.77568,2.02935 1.14151,0.72929 2.6001,0.72929 z"
         style="font-size:31.7085px;stroke-width:0.531502"
         id="path860" />
      <path
         d="m 232.77409,130.94248 q 2.18788,0 3.96356,1.1098 1.77567,1.07808 2.79035,3.04401 1.01467,1.96593 1.01467,4.43919 0,2.47326 -1.01467,4.43919 -1.01468,1.96593 -2.79035,3.07573 -1.74397,1.10979 -3.86844,1.10979 -1.68055,0 -3.13914,-0.69758 -1.42688,-0.7293 -2.34643,-1.80739 v 9.19547 h -3.29768 v -23.65454 h 3.29768 v 2.44155 q 0.761,-1.1098 2.2513,-1.90251 1.4903,-0.79271 3.13915,-0.79271 z m -0.44392,14.20541 q 1.45859,0 2.60009,-0.7293 1.17322,-0.761 1.80739,-2.02934 0.66588,-1.26834 0.66588,-2.85377 0,-1.58542 -0.66588,-2.85376 -0.63417,-1.26834 -1.80739,-1.99764 -1.1415,-0.72929 -2.60009,-0.72929 -1.4903,0 -2.66352,0.72929 -1.1415,0.7293 -1.80738,1.99764 -0.63417,1.26834 -0.63417,2.85376 0,1.58543 0.63417,2.88547 0.66588,1.26834 1.80738,1.99764 1.17322,0.7293 2.66352,0.7293 z"
         style="font-size:31.7085px;stroke-width:0.531502"
         id="path862" />
      <path
         d="m 252.77769,130.94248 q 2.18788,0 3.96356,1.1098 1.77567,1.07808 2.79035,3.04401 1.01467,1.96593 1.01467,4.43919 0,2.47326 -1.01467,4.43919 -1.01468,1.96593 -2.79035,3.07573 -1.74397,1.10979 -3.86844,1.10979 -1.68055,0 -3.13914,-0.69758 -1.42688,-0.7293 -2.34643,-1.80739 v 9.19547 h -3.29768 v -23.65454 h 3.29768 v 2.44155 q 0.76101,-1.1098 2.2513,-1.90251 1.4903,-0.79271 3.13915,-0.79271 z m -0.44392,14.20541 q 1.45859,0 2.60009,-0.7293 1.17322,-0.761 1.80739,-2.02934 0.66588,-1.26834 0.66588,-2.85377 0,-1.58542 -0.66588,-2.85376 -0.63417,-1.26834 -1.80739,-1.99764 -1.1415,-0.72929 -2.60009,-0.72929 -1.4903,0 -2.66352,0.72929 -1.1415,0.7293 -1.80738,1.99764 -0.63417,1.26834 -0.63417,2.85376 0,1.58543 0.63417,2.88547 0.66588,1.26834 1.80738,1.99764 1.17322,0.7293 2.66352,0.7293 z"
         style="font-size:31.7085px;stroke-width:0.531502"
         id="path864" />
    </g>
  </g>
</svg>
