<?xml version="1.0" encoding="utf-8"?>
<!-- Generator: Adobe Illustrator 16.0.4, SVG Export Plug-In . SVG Version: 6.00 Build 0)  -->
<!DOCTYPE svg PUBLIC "-//W3C//DTD SVG 1.1//EN" "http://www.w3.org/Graphics/SVG/1.1/DTD/svg11.dtd">
<svg version="1.1" id="Calque_1" xmlns="http://www.w3.org/2000/svg" xmlns:xlink="http://www.w3.org/1999/xlink" x="0px" y="0px"
	 width="64px" height="66px" viewBox="0 0 64 66" enable-background="new 0 0 64 66" xml:space="preserve">
<path fill="#FFFFFF" stroke="#FFFFFF" stroke-width="2.346" d="M3.355,62.101V3.167h57.541v58.934H3.355z"/>
<path fill="#0A62AC" stroke="#FFFFFF" stroke-width="0.454" d="M3.355,62.101V3.167h57.541v58.934H3.355z"/>
<g>
	<path fill="#BCCAE9" d="M17.56,32.556c-0.598-0.378-2.19-1.292-2.578-1.657c-0.47-0.443-0.77-1.185-0.524-2.162H5.937v3.818H17.56z
		"/>
	<g>
		<path fill="#BCCAE9" d="M28.611,30.959c-0.565,0.319-3.121,1.597-3.121,1.597h4.106c0-0.208,0.424-0.652,0.424-0.652
			C28.84,31.963,28.611,30.959,28.611,30.959z"/>
	</g>
	<g>
		<path fill="#BCCAE9" d="M36.359,30.959c0.333,0.269,2.627,1.597,2.627,1.597h-4.038c0-0.208-0.264-0.681-0.264-0.681
			C35.951,32.016,36.359,30.959,36.359,30.959z"/>
	</g>
	<path fill="#BCCAE9" d="M47.03,32.556c0,0,2.544-1.258,3.087-1.714c0.475-0.401,1.187-1.307,0.943-2.121h7.32v3.835H47.03z"/>
</g>
<g>
	<g>
		<g>
			<path fill="#FFFFFF" d="M24.192,17.021c1.012,0,1.947-0.822,2.09-1.833c0.142-1.012-0.562-1.832-1.575-1.832
				c-1.012,0-1.948,0.82-2.09,1.832C22.474,16.199,23.179,17.021,24.192,17.021z"/>
			<path fill="#FFFFFF" d="M24.448,15.188"/>
		</g>
		<path fill="#FFFFFF" d="M19.457,17.125"/>
		<path fill="#FFFFFF" d="M24.047,17.942l3.998-2.234c0.398-0.213,0.729-0.302,1.064-0.302c0.948,0,1.609,0.77,1.475,1.718
			c-0.081,0.583-0.445,1.099-0.934,1.409l-3.02,1.706c0,0-0.41,2.872-0.62,4.357c-0.062,0.43-0.666,0.697-1.018,0.49
			c-0.604-0.355-1.792-1.122-1.792-1.122s-1.403,0.766-2.107,1.122c-0.413,0.208-0.941-0.06-0.881-0.49
			c0.207-1.486,0.605-4.357,0.605-4.357l-2.541-1.706c-0.401-0.311-0.62-0.826-0.539-1.409c0.135-0.949,1.011-1.718,1.961-1.718
			c0.335,0,0.639,0.089,0.881,0.256L24.047,17.942z"/>
	</g>
	<g>
		<g>
			<path fill="#FFFFFF" d="M35.445,11.012c1.012,0,1.949-0.819,2.09-1.833c0.144-1.012-0.562-1.832-1.574-1.832
				s-1.947,0.82-2.092,1.832C33.729,10.192,34.434,11.012,35.445,11.012z"/>
			<path fill="#FFFFFF" d="M35.703,9.179"/>
		</g>
		<path fill="#FFFFFF" d="M30.711,11.116"/>
		<path fill="#FFFFFF" d="M35.301,11.934l3.998-2.235c0.397-0.211,0.727-0.301,1.063-0.301c0.95,0,1.61,0.769,1.478,1.718
			c-0.084,0.584-0.446,1.101-0.936,1.411l-3.02,1.703c0,0-0.409,2.872-0.619,4.358c-0.062,0.43-0.664,0.697-1.019,0.489
			c-0.604-0.355-1.792-1.121-1.792-1.121s-1.404,0.766-2.108,1.121c-0.412,0.208-0.941-0.06-0.88-0.489
			c0.206-1.486,0.603-4.358,0.603-4.358l-2.54-1.703c-0.4-0.31-0.62-0.827-0.539-1.411c0.133-0.949,1.011-1.718,1.96-1.718
			c0.338,0,0.64,0.09,0.882,0.256L35.301,11.934z"/>
	</g>
	<g>
		<g>
			<path fill="#FFFFFF" d="M44.969,17.021c1.014,0,1.947-0.822,2.089-1.833c0.145-1.012-0.562-1.832-1.573-1.832
				s-1.947,0.82-2.091,1.832C43.25,16.199,43.956,17.021,44.969,17.021z"/>
			<path fill="#FFFFFF" d="M45.227,15.188"/>
		</g>
		<path fill="#FFFFFF" d="M40.233,17.125"/>
		<path fill="#FFFFFF" d="M44.824,17.942l3.998-2.234c0.397-0.213,0.727-0.302,1.064-0.302c0.948,0,1.609,0.77,1.477,1.718
			c-0.082,0.583-0.445,1.099-0.936,1.409l-3.02,1.706c0,0-0.41,2.872-0.621,4.357c-0.061,0.43-0.664,0.697-1.017,0.49
			c-0.605-0.355-1.793-1.122-1.793-1.122s-1.403,0.766-2.106,1.122c-0.413,0.208-0.941-0.06-0.881-0.49
			c0.207-1.486,0.604-4.357,0.604-4.357l-2.54-1.706c-0.401-0.311-0.62-0.826-0.537-1.409c0.132-0.949,1.01-1.718,1.96-1.718
			c0.336,0,0.641,0.089,0.881,0.256L44.824,17.942z"/>
	</g>
	<g>
		<g>
			<path fill="#FFFFFF" d="M43.223,29.156c1.01,0,1.945-0.821,2.088-1.833c0.142-1.012-0.563-1.833-1.574-1.833
				c-1.014,0-1.947,0.821-2.092,1.833C41.504,28.335,42.207,29.156,43.223,29.156z"/>
			<path fill="#FFFFFF" d="M43.478,27.322"/>
		</g>
		<path fill="#FFFFFF" d="M38.486,29.259"/>
		<path fill="#FFFFFF" d="M43.076,30.078l3.999-2.236c0.397-0.211,0.726-0.301,1.062-0.301c0.95,0,1.61,0.77,1.477,1.719
			c-0.081,0.583-0.445,1.099-0.934,1.411l-3.021,1.703c0,0-0.408,2.872-0.619,4.358c-0.062,0.432-0.665,0.697-1.02,0.487
			c-0.604-0.354-1.791-1.118-1.791-1.118s-1.404,0.764-2.107,1.118c-0.412,0.21-0.941-0.056-0.881-0.487
			c0.207-1.486,0.604-4.358,0.604-4.358l-2.539-1.703c-0.402-0.312-0.621-0.828-0.538-1.411c0.134-0.949,1.009-1.719,1.96-1.719
			c0.336,0,0.639,0.09,0.881,0.256L43.076,30.078z"/>
	</g>
	<g>
		<g>
			<path fill="#FFFFFF" d="M33.747,23.088c1.013,0,1.948-0.82,2.091-1.833c0.143-1.011-0.562-1.833-1.574-1.833
				c-1.014,0-1.948,0.821-2.091,1.833C32.03,22.268,32.736,23.088,33.747,23.088z"/>
			<path fill="#FFFFFF" d="M34.006,21.255"/>
		</g>
		<path fill="#FFFFFF" d="M29.014,23.191"/>
		<path fill="#FFFFFF" d="M33.604,24.01l3.998-2.235c0.398-0.211,0.727-0.301,1.063-0.301c0.948,0,1.61,0.77,1.477,1.718
			c-0.082,0.584-0.445,1.1-0.935,1.41l-3.02,1.705c0,0-0.409,2.874-0.619,4.358c-0.062,0.432-0.666,0.697-1.019,0.489
			c-0.604-0.354-1.793-1.12-1.793-1.12s-1.402,0.766-2.107,1.12c-0.411,0.208-0.941-0.057-0.88-0.489
			c0.207-1.484,0.604-4.358,0.604-4.358l-2.54-1.705c-0.402-0.31-0.621-0.826-0.537-1.41c0.132-0.948,1.01-1.718,1.958-1.718
			c0.336,0,0.64,0.089,0.882,0.256L33.604,24.01z"/>
	</g>
	<g>
		<g>
			<path fill="#FFFFFF" d="M32.06,35.163c1.013,0,1.947-0.82,2.09-1.833c0.144-1.011-0.563-1.833-1.575-1.833
				c-1.013,0-1.948,0.821-2.09,1.833C30.341,34.343,31.047,35.163,32.06,35.163z"/>
			<path fill="#FFFFFF" d="M32.318,33.331"/>
		</g>
		<path fill="#FFFFFF" d="M27.325,35.267"/>
		<path fill="#FFFFFF" d="M31.915,36.085l3.997-2.235c0.398-0.211,0.729-0.302,1.064-0.302c0.949,0,1.61,0.77,1.479,1.718
			c-0.084,0.584-0.447,1.101-0.937,1.41L34.5,38.382c0,0-0.41,2.871-0.621,4.357c-0.062,0.433-0.666,0.697-1.018,0.488
			c-0.603-0.354-1.792-1.119-1.792-1.119s-1.403,0.766-2.107,1.119c-0.411,0.209-0.941-0.056-0.88-0.488
			c0.207-1.486,0.603-4.357,0.603-4.357l-2.54-1.705c-0.401-0.31-0.619-0.826-0.537-1.41c0.132-0.948,1.01-1.718,1.959-1.718
			c0.335,0,0.639,0.091,0.881,0.258L31.915,36.085z"/>
	</g>
	<g>
		<g>
			<path fill="#FFFFFF" d="M22.495,29.097c1.012,0,1.947-0.82,2.09-1.833c0.142-1.012-0.563-1.833-1.576-1.833
				c-1.013,0-1.948,0.821-2.09,1.833C20.777,28.277,21.481,29.097,22.495,29.097z"/>
			<path fill="#FFFFFF" d="M22.751,27.264"/>
		</g>
		<path fill="#FFFFFF" d="M17.759,29.2"/>
		<path fill="#FFFFFF" d="M22.349,30.018l3.999-2.235c0.398-0.212,0.728-0.3,1.065-0.3c0.948,0,1.608,0.77,1.476,1.717
			c-0.082,0.585-0.446,1.101-0.935,1.41l-3.02,1.704c0,0-0.41,2.873-0.62,4.357c-0.062,0.432-0.665,0.698-1.019,0.492
			c-0.605-0.355-1.792-1.123-1.792-1.123s-1.403,0.768-2.107,1.123c-0.412,0.206-0.941-0.061-0.881-0.492
			c0.207-1.484,0.604-4.357,0.604-4.357l-2.541-1.704c-0.4-0.31-0.619-0.825-0.537-1.41c0.134-0.947,1.01-1.717,1.959-1.717
			c0.337,0,0.642,0.088,0.882,0.255L22.349,30.018z"/>
	</g>
</g>
<path fill="#FFFFFF" d="M11.761,49.772l0.853-1.428l0.265,1.428H11.761z M12.947,50.145c0.086,0.413,0.132,0.831,0.186,1.284
	c0.18-0.01,0.354-0.027,0.531-0.027c0.179,0,0.347,0.018,0.522,0.027l-0.881-4.26c-0.082,0.014-0.157,0.02-0.235,0.02
	c-0.08,0-0.151-0.006-0.229-0.02l-2.579,4.25c0.101-0.008,0.202-0.018,0.298-0.018c0.099,0,0.188,0.01,0.285,0.018
	c0.199-0.426,0.426-0.806,0.676-1.274H12.947z"/>
<path fill="#FFFFFF" d="M15.771,50.96c0.533,0,0.995-0.043,1.42-0.086c-0.03,0.086-0.066,0.179-0.082,0.263
	c-0.018,0.086-0.016,0.177-0.021,0.263h-2.322l0.811-4.174c0.151,0.012,0.3,0.03,0.454,0.03c0.152,0,0.308-0.019,0.463-0.03
	L15.771,50.96z"/>
<path fill="#FFFFFF" d="M18.834,50.96c0.534,0,0.996-0.043,1.421-0.086c-0.029,0.086-0.066,0.179-0.082,0.263
	c-0.017,0.086-0.015,0.177-0.02,0.263h-2.321l0.811-4.174c0.15,0.012,0.299,0.03,0.454,0.03c0.151,0,0.309-0.019,0.464-0.03
	L18.834,50.96z"/>
<path fill="#FFFFFF" d="M23.752,47.488c0.921,0,1.113,0.907,0.958,1.696c-0.198,1.017-0.804,1.959-1.748,1.959
	c-0.921,0-1.118-0.846-0.964-1.641C22.266,48.132,22.9,47.488,23.752,47.488z M25.702,49.302c0.179-0.949-0.094-2.18-1.841-2.18
	c-1.527,0-2.604,0.984-2.84,2.204c-0.271,1.39,0.485,2.186,1.84,2.186C24.362,51.512,25.475,50.494,25.702,49.302z"/>
<path fill="#FFFFFF" d="M29.448,50.722l-0.236,0.527c-0.406,0.188-0.854,0.263-1.265,0.263c-1.312,0-2.145-0.809-1.899-2.063
	c0.31-1.599,1.551-2.326,2.887-2.326c0.404,0,0.874,0.104,1.192,0.299c-0.095,0.207-0.172,0.417-0.264,0.63h-0.086
	c-0.162-0.331-0.508-0.562-0.908-0.562c-1.018,0-1.616,0.973-1.791,1.874c-0.204,1.048,0.168,1.781,1.113,1.781
	c0.38,0,0.86-0.195,1.187-0.459L29.448,50.722z"/>
<path fill="#FFFFFF" d="M31.171,49.772l0.854-1.428l0.265,1.428H31.171z M32.358,50.145c0.086,0.413,0.134,0.831,0.186,1.284
	c0.18-0.01,0.356-0.027,0.534-0.027c0.178,0,0.344,0.018,0.521,0.027l-0.883-4.26c-0.082,0.014-0.155,0.02-0.234,0.02
	c-0.08,0-0.151-0.006-0.229-0.02l-2.578,4.25c0.098-0.008,0.199-0.018,0.297-0.018c0.097,0,0.188,0.01,0.284,0.018
	c0.2-0.426,0.428-0.806,0.678-1.274H32.358z"/>
<path fill="#FFFFFF" d="M35.857,51.429c-0.152-0.01-0.301-0.027-0.453-0.027c-0.154,0-0.309,0.018-0.466,0.027l0.734-3.766
	c-0.437,0-0.831,0.043-1.159,0.086c0.029-0.086,0.064-0.172,0.082-0.264c0.018-0.088,0.016-0.174,0.02-0.26h3.155
	c-0.027,0.086-0.063,0.172-0.08,0.26c-0.019,0.092-0.017,0.178-0.021,0.264c-0.353-0.043-0.707-0.086-1.082-0.086L35.857,51.429z"/>
<path fill="#FFFFFF" d="M38.461,47.226c0.152,0.012,0.301,0.03,0.453,0.03c0.154,0,0.311-0.019,0.467-0.03l-0.819,4.203
	c-0.149-0.01-0.3-0.027-0.452-0.027s-0.311,0.018-0.464,0.027L38.461,47.226z"/>
<path fill="#FFFFFF" d="M42.484,47.488c0.919,0,1.111,0.907,0.957,1.696c-0.196,1.017-0.803,1.959-1.748,1.959
	c-0.92,0-1.118-0.846-0.963-1.641C40.998,48.132,41.631,47.488,42.484,47.488z M44.434,49.302c0.178-0.949-0.096-2.18-1.842-2.18
	c-1.525,0-2.604,0.984-2.84,2.204c-0.271,1.39,0.485,2.186,1.84,2.186C43.094,51.512,44.207,50.494,44.434,49.302z"/>
<path fill="#FFFFFF" d="M45.567,47.226h0.604c0.688,0.951,1.421,1.881,2.096,2.867l0.559-2.867c0.075,0.012,0.16,0.018,0.238,0.018
	c0.08,0,0.164-0.006,0.246-0.018l-0.816,4.203l-0.517-0.005c-0.559-0.791-1.075-1.546-1.627-2.274l-0.533-0.697l-0.577,2.967
	c-0.077-0.008-0.161-0.018-0.24-0.018s-0.166,0.01-0.246,0.018L45.567,47.226z"/>
<path fill="#FFFFFF" d="M52.046,48.021c-0.058-0.323-0.249-0.532-0.599-0.532c-0.484,0-0.724,0.253-0.791,0.6
	c-0.162,0.827,1.729,0.673,1.457,2.076c-0.152,0.784-0.933,1.348-1.885,1.348c-0.336,0-0.682-0.081-0.934-0.263
	c0.123-0.258,0.24-0.518,0.328-0.779h0.117c0.01,0.424,0.291,0.674,0.715,0.674c0.38,0,0.76-0.215,0.841-0.637
	c0.189-0.979-1.706-0.623-1.42-2.102c0.139-0.702,0.734-1.283,1.667-1.283c0.441,0,0.8,0.164,0.908,0.293
	c-0.11,0.195-0.211,0.398-0.311,0.605H52.046z"/>
<path fill="#FFFFFF" d="M15.417,57.624c-0.152-0.011-0.301-0.031-0.454-0.031c-0.153,0-0.31,0.021-0.464,0.031l0.818-4.205h2.332
	c-0.027,0.086-0.064,0.177-0.081,0.262c-0.017,0.088-0.017,0.18-0.021,0.264c-0.365-0.041-0.755-0.084-1.399-0.084l-0.256,1.322
	h0.65c0.239,0,0.489-0.025,0.752-0.057c-0.029,0.086-0.065,0.177-0.082,0.264c-0.017,0.085-0.017,0.178-0.022,0.264
	c-0.251-0.025-0.491-0.055-0.736-0.055h-0.645L15.417,57.624z"/>
<path fill="#FFFFFF" d="M18.665,55.965l0.854-1.425l0.265,1.425H18.665z M19.851,56.339c0.086,0.41,0.133,0.83,0.187,1.285
	c0.181-0.011,0.355-0.031,0.533-0.031s0.347,0.021,0.521,0.031l-0.882-4.26c-0.08,0.013-0.155,0.018-0.234,0.018
	s-0.151-0.005-0.228-0.018l-2.579,4.249c0.099-0.008,0.2-0.021,0.297-0.021c0.099,0,0.188,0.013,0.286,0.021
	c0.198-0.427,0.426-0.808,0.675-1.274H19.851z"/>
<path fill="#FFFFFF" d="M26.17,53.419c0.084,0.012,0.167,0.029,0.251,0.029c0.087,0,0.183-0.018,0.271-0.029
	c-0.13,1.649-0.25,2.984-0.278,4.205c-0.168-0.011-0.331-0.031-0.502-0.031s-0.328,0.021-0.503,0.031
	c0.141-0.975,0.201-1.912,0.291-2.857c-0.648,0.938-1.291,1.875-1.913,2.826c-0.076-0.012-0.148-0.018-0.232,0
	c-0.228-0.846-0.529-1.796-0.809-2.756c-0.35,1.078-0.614,1.928-0.8,2.787c-0.095-0.011-0.183-0.031-0.28-0.031
	c-0.098,0-0.188,0.021-0.287,0.031c0.459-1.233,0.929-2.654,1.439-4.205c0.083,0.012,0.16,0.029,0.246,0.029
	c0.086,0,0.175-0.018,0.264-0.029c0.255,0.964,0.555,1.918,0.854,2.881C24.792,55.431,25.501,54.467,26.17,53.419z"/>
<path fill="#FFFFFF" d="M27.997,53.419c0.15,0.012,0.299,0.029,0.454,0.029c0.151,0,0.309-0.018,0.464-0.029l-0.817,4.205
	c-0.151-0.011-0.301-0.031-0.454-0.031c-0.152,0-0.31,0.021-0.465,0.031L27.997,53.419z"/>
<path fill="#FFFFFF" d="M30.166,57.153c0.533,0,0.996-0.043,1.421-0.086c-0.03,0.086-0.066,0.178-0.082,0.264
	c-0.018,0.085-0.016,0.176-0.02,0.26h-2.322l0.811-4.172c0.151,0.012,0.301,0.029,0.454,0.029c0.152,0,0.31-0.018,0.464-0.029
	L30.166,57.153z"/>
<path fill="#FFFFFF" d="M33.104,53.419c0.148,0.012,0.299,0.029,0.451,0.029s0.311-0.018,0.465-0.029l-0.816,4.205
	c-0.15-0.011-0.301-0.031-0.453-0.031c-0.154,0-0.311,0.021-0.464,0.031L33.104,53.419z"/>
<path fill="#FFFFFF" d="M35.35,55.965l0.854-1.425l0.265,1.425H35.35z M36.536,56.339c0.085,0.41,0.133,0.83,0.185,1.285
	c0.182-0.011,0.355-0.031,0.535-0.031c0.177,0,0.345,0.021,0.52,0.031l-0.882-4.26c-0.081,0.013-0.155,0.018-0.234,0.018
	s-0.151-0.005-0.229-0.018l-2.578,4.249c0.101-0.008,0.199-0.021,0.299-0.021c0.097,0,0.187,0.013,0.283,0.021
	c0.2-0.427,0.427-0.808,0.678-1.274H36.536z"/>
<path fill="#FFFFFF" d="M39.359,57.153c0.533,0,0.995-0.043,1.42-0.086c-0.029,0.086-0.063,0.178-0.082,0.264
	c-0.016,0.085-0.016,0.176-0.019,0.26h-2.321l0.811-4.172c0.15,0.012,0.301,0.029,0.453,0.029c0.151,0,0.309-0.018,0.465-0.029
	L39.359,57.153z"/>
<path fill="#FFFFFF" d="M44.55,53.419c-0.028,0.086-0.065,0.177-0.081,0.262c-0.017,0.088-0.017,0.18-0.021,0.264
	c-0.363-0.047-0.771-0.098-1.399-0.084l-0.258,1.322h0.639c0.275,0,0.531-0.025,0.765-0.057c-0.028,0.086-0.065,0.177-0.083,0.264
	c-0.017,0.085-0.015,0.178-0.02,0.264c-0.223-0.03-0.468-0.055-0.744-0.055h-0.637l-0.303,1.553c0.627-0.006,1.05-0.036,1.434-0.085
	c-0.03,0.085-0.064,0.177-0.08,0.263c-0.02,0.086-0.018,0.178-0.022,0.262h-2.334l0.812-4.172H44.55z"/>
<path fill="#FFFFFF" d="M47.031,54.214c-0.059-0.324-0.25-0.533-0.601-0.533c-0.483,0-0.723,0.254-0.792,0.601
	c-0.16,0.827,1.731,0.675,1.458,2.076c-0.151,0.782-0.934,1.346-1.884,1.346c-0.336,0-0.683-0.078-0.934-0.262
	c0.122-0.257,0.24-0.515,0.328-0.776h0.115c0.01,0.421,0.292,0.672,0.715,0.672c0.381,0,0.76-0.215,0.842-0.638
	c0.191-0.979-1.705-0.623-1.418-2.099c0.137-0.703,0.734-1.285,1.666-1.285c0.44,0,0.799,0.164,0.909,0.295
	c-0.112,0.193-0.212,0.396-0.313,0.604H47.031z"/>
</svg>
