<?xml version="1.0" encoding="utf-8"?>
<!-- Generator: Adobe Illustrator 16.0.4, SVG Export Plug-In . SVG Version: 6.00 Build 0)  -->
<!DOCTYPE svg PUBLIC "-//W3C//DTD SVG 1.1//EN" "http://www.w3.org/Graphics/SVG/1.1/DTD/svg11.dtd">
<svg version="1.1" id="Calque_1" xmlns="http://www.w3.org/2000/svg" xmlns:xlink="http://www.w3.org/1999/xlink" x="0px" y="0px"
	 width="155.91px" height="56.69px" viewBox="0 0 155.91 56.69" enable-background="new 0 0 155.91 56.69" xml:space="preserve">
<g>
	<path fill="#FFFFFF" d="M31.15,32.269c3.286,0,5.609,2.484,5.609,6.012c0,3.727-2.244,6.292-5.571,6.292
		c-3.167,0-5.449-2.646-5.449-6.334C25.739,34.874,28.104,32.269,31.15,32.269 M36.562,30.062v2.365
		c-1.646-1.926-3.41-2.768-5.773-2.768c-4.611,0-7.981,3.647-7.981,8.698c0,5.049,3.413,8.816,7.981,8.816
		c2.405,0,4.168-0.838,5.773-2.804v2.325h2.844V30.062H36.562z"/>
	<path fill="#FFFFFF" d="M11.108,32.269c3.163,0,5.45,2.605,5.45,6.33c0,3.328-2.364,5.974-5.411,5.974
		c-3.247,0-5.612-2.524-5.612-6.013C5.535,34.831,7.82,32.269,11.108,32.269 M5.694,56.076V44.373
		c1.685,1.966,3.451,2.804,5.775,2.804c4.567,0,8.015-3.646,8.015-8.537c0-5.253-3.326-8.979-7.977-8.979
		c-2.404,0-4.207,0.842-5.813,2.768v-2.363H2.849v26.012H5.694L5.694,56.076z"/>
	<path fill="#FFFFFF" d="M37.367,1.682c-1.125,0-2.043,0.921-2.043,2.044c0,1.121,0.921,2.043,2.043,2.043
		c1.121,0,2.043-0.922,2.043-2.043C39.41,2.603,38.487,1.682,37.367,1.682 M38.767,10.018h-2.846v16.638h2.846V10.018z
		 M23.854,10.018v16.638h2.845v-8.778c0-3.889,0.961-5.533,3.287-5.533c0.602,0,0.962,0.121,1.683,0.56l1.323-2.562
		c-1.002-0.562-1.602-0.722-2.525-0.722c-1.562,0-2.285,0.439-3.769,2.205V10.02h-2.844V10.018z"/>
	<path fill="#FFFFFF" d="M10.146,12.223c3.285,0,5.61,2.485,5.61,6.015c0,3.728-2.244,6.293-5.571,6.293
		c-3.168,0-5.452-2.646-5.452-6.334C4.733,14.831,7.098,12.223,10.146,12.223 M15.559,10.018v2.364
		c-1.644-1.924-3.408-2.765-5.775-2.765c-4.607,0-7.976,3.647-7.976,8.697c0,5.052,3.406,8.819,7.976,8.819
		c2.406,0,4.173-0.841,5.775-2.806v2.326h2.844V10.018H15.559z"/>
	<path fill="#FFFFFF" stroke="#FFFFFF" stroke-width="0.2464" stroke-miterlimit="10" d="M146.936,41.998
		c-0.26-0.522-0.659-0.78-1.163-0.78c-0.753,0-1.298,0.51-1.298,1.213c0,0.574,0.254,0.826,1.258,1.266
		c0.544,0.229,0.703,0.386,0.703,0.723c0,0.388-0.305,0.68-0.703,0.68c-0.42,0-0.628-0.168-0.88-0.7l-0.658,0.271
		c0.28,0.739,0.796,1.106,1.528,1.106c0.827,0,1.475-0.617,1.475-1.409c0-0.664-0.262-0.933-1.309-1.373
		c-0.57-0.229-0.702-0.365-0.702-0.627c0-0.264,0.241-0.47,0.534-0.47c0.252,0,0.439,0.135,0.595,0.428L146.936,41.998z
		 M140.059,43.005c0.105-0.647,0.649-1.12,1.277-1.12c0.641,0,1.141,0.439,1.276,1.12H140.059z M143.396,43.631v-0.148
		c0-1.357-0.828-2.265-2.061-2.265c-1.236,0-2.116,0.927-2.116,2.258c0,1.363,0.87,2.302,2.125,2.302
		c0.892,0,1.53-0.386,2.011-1.234l-0.627-0.354c-0.422,0.672-0.766,0.91-1.343,0.91c-0.782,0-1.337-0.575-1.379-1.468H143.396z
		 M136.54,41.309v4.343h0.743v-2.289c0-1.018,0.251-1.446,0.859-1.446c0.153,0,0.252,0.031,0.44,0.147l0.343-0.671
		c-0.261-0.147-0.417-0.187-0.66-0.187c-0.406,0-0.596,0.115-0.984,0.571v-0.469H136.54z M134.738,39.132
		c-0.291,0-0.531,0.241-0.531,0.534s0.24,0.533,0.531,0.533c0.295,0,0.534-0.24,0.534-0.533S135.033,39.132,134.738,39.132
		 M135.105,41.309h-0.742v4.343h0.742V41.309z M130.78,41.885c0.862,0,1.469,0.647,1.469,1.569c0,0.977-0.586,1.645-1.457,1.645
		c-0.827,0-1.425-0.691-1.425-1.655C129.367,42.566,129.987,41.885,130.78,41.885 M132.196,41.309v0.618
		c-0.429-0.501-0.892-0.721-1.507-0.721c-1.206,0-2.084,0.948-2.084,2.271c0,1.318,0.889,2.302,2.084,2.302
		c0.627,0,1.088-0.218,1.507-0.73v0.604h0.743v-4.345H132.196z M127.339,41.998h0.776v-0.689h-0.776v-1.569h-0.742v1.569h-0.449
		v0.689h0.449v3.653h0.742V41.998z M121.686,41.309v4.343h0.742v-2.167c0-1.129,0.328-1.612,1.081-1.612
		c0.679,0,0.921,0.326,0.921,1.218v2.562h0.742v-2.688c0-0.566-0.071-0.892-0.241-1.16c-0.243-0.367-0.722-0.597-1.246-0.597
		c-0.545,0-0.881,0.167-1.257,0.625v-0.522H121.686z M117.207,43.005c0.104-0.647,0.649-1.12,1.275-1.12
		c0.637,0,1.142,0.439,1.278,1.12H117.207z M120.545,43.631v-0.148c0-1.357-0.825-2.265-2.062-2.265
		c-1.232,0-2.112,0.927-2.112,2.258c0,1.363,0.866,2.302,2.122,2.302c0.89,0,1.53-0.386,2.011-1.234l-0.628-0.354
		c-0.42,0.672-0.762,0.91-1.339,0.91c-0.787,0-1.341-0.575-1.382-1.468H120.545z M109.531,41.309v4.343h0.744v-2.364
		c0-0.942,0.312-1.402,0.962-1.402c0.515,0,0.788,0.408,0.788,1.193v2.573h0.739v-2.408c0-0.907,0.315-1.358,0.954-1.358
		c0.557,0,0.8,0.335,0.8,1.131v2.636h0.738v-2.752c0-1.123-0.479-1.693-1.425-1.693c-0.572,0-1.021,0.239-1.283,0.7
		c-0.252-0.451-0.671-0.7-1.195-0.7c-0.463,0-0.776,0.168-1.078,0.571v-0.469H109.531z M107.732,39.132
		c-0.292,0-0.535,0.241-0.535,0.534s0.243,0.533,0.535,0.533s0.533-0.24,0.533-0.533S108.025,39.132,107.732,39.132 M108.096,41.309
		h-0.742v4.343h0.742V41.309z M105.93,38.024h-0.743v7.627h0.743V38.024z M101.608,41.885c0.859,0,1.465,0.647,1.465,1.569
		c0,0.977-0.589,1.645-1.456,1.645c-0.828,0-1.425-0.691-1.425-1.655C100.192,42.566,100.811,41.885,101.608,41.885 M103.021,41.309
		v0.618c-0.428-0.501-0.89-0.721-1.508-0.721c-1.202,0-2.08,0.948-2.08,2.271c0,1.318,0.889,2.302,2.08,2.302
		c0.628,0,1.091-0.218,1.508-0.73v0.604h0.742v-4.345H103.021z M95.816,41.998c-0.26-0.522-0.655-0.78-1.16-0.78
		c-0.756,0-1.298,0.51-1.298,1.213c0,0.574,0.251,0.826,1.257,1.266c0.546,0.229,0.703,0.386,0.703,0.723
		c0,0.388-0.304,0.68-0.703,0.68c-0.42,0-0.631-0.168-0.883-0.7l-0.656,0.271c0.282,0.739,0.793,1.106,1.527,1.106
		c0.828,0,1.475-0.617,1.475-1.409c0-0.664-0.262-0.933-1.309-1.373c-0.565-0.229-0.699-0.365-0.699-0.627
		c0-0.264,0.24-0.47,0.531-0.47c0.253,0,0.441,0.135,0.598,0.428L95.816,41.998z M88.514,41.309v4.343h0.738v-2.167
		c0-1.129,0.326-1.612,1.078-1.612c0.682,0,0.926,0.326,0.926,1.218v2.562H92v-2.688c0-0.566-0.076-0.892-0.244-1.16
		c-0.24-0.367-0.721-0.597-1.245-0.597c-0.544,0-0.882,0.167-1.259,0.625v-0.522H88.514z M85.057,41.897
		c0.913,0,1.553,0.658,1.553,1.601c0,0.931-0.651,1.601-1.553,1.601c-0.871,0-1.519-0.68-1.519-1.601
		C83.538,42.575,84.176,41.897,85.057,41.897 M85.068,41.218c-1.278,0-2.295,1.012-2.295,2.28c0,1.264,1.017,2.278,2.295,2.278
		c1.297,0,2.303-0.989,2.303-2.278C87.371,42.207,86.365,41.218,85.068,41.218 M81.258,39.132c-0.293,0-0.533,0.241-0.533,0.534
		s0.24,0.533,0.533,0.533c0.292,0,0.531-0.24,0.531-0.533S81.55,39.132,81.258,39.132 M81.62,41.309h-0.741v4.343h0.741V41.309z
		 M79.611,41.998c-0.26-0.522-0.656-0.78-1.158-0.78c-0.757,0-1.299,0.51-1.299,1.213c0,0.574,0.252,0.826,1.256,1.266
		c0.545,0.229,0.702,0.386,0.702,0.723c0,0.388-0.302,0.68-0.702,0.68c-0.421,0-0.632-0.168-0.879-0.7l-0.66,0.271
		c0.283,0.739,0.795,1.106,1.528,1.106c0.824,0,1.472-0.617,1.472-1.409c0-0.664-0.26-0.933-1.305-1.373
		c-0.567-0.229-0.701-0.365-0.701-0.627c0-0.264,0.238-0.47,0.532-0.47c0.254,0,0.439,0.135,0.599,0.428L79.611,41.998z
		 M72.306,41.309v4.343h0.742v-2.167c0-1.129,0.326-1.612,1.08-1.612c0.682,0,0.922,0.326,0.922,1.218v2.562h0.741v-2.688
		c0-0.566-0.074-0.892-0.238-1.16c-0.243-0.367-0.723-0.597-1.25-0.597c-0.542,0-0.877,0.167-1.256,0.625v-0.522H72.306z
		 M67.826,43.005c0.104-0.647,0.648-1.12,1.275-1.12c0.639,0,1.142,0.439,1.277,1.12H67.826z M71.166,43.631v-0.148
		c0-1.357-0.828-2.265-2.062-2.265c-1.236,0-2.114,0.927-2.114,2.258c0,1.363,0.868,2.302,2.125,2.302
		c0.889,0,1.528-0.386,2.01-1.234l-0.627-0.354c-0.421,0.672-0.765,0.91-1.344,0.91c-0.784,0-1.338-0.575-1.381-1.468H71.166z
		 M63.941,41.885c0.83,0,1.424,0.682,1.424,1.654c0,0.868-0.617,1.56-1.412,1.56c-0.849,0-1.466-0.658-1.466-1.57
		C62.487,42.556,63.085,41.885,63.941,41.885 M62.531,48.104v-3.057c0.438,0.514,0.897,0.73,1.504,0.73
		c1.195,0,2.093-0.948,2.093-2.228c0-1.37-0.868-2.344-2.081-2.344c-0.627,0-1.099,0.22-1.516,0.721v-0.618h-0.746v6.795H62.531z
		 M54.688,43.005c0.106-0.647,0.649-1.12,1.276-1.12c0.641,0,1.143,0.439,1.279,1.12H54.688z M58.027,43.631v-0.148
		c0-1.357-0.83-2.265-2.063-2.265c-1.235,0-2.114,0.927-2.114,2.258c0,1.363,0.867,2.302,2.128,2.302
		c0.89,0,1.525-0.386,2.009-1.234l-0.629-0.354c-0.42,0.672-0.765,0.91-1.339,0.91c-0.786,0-1.341-0.575-1.384-1.468H58.027z
		 M50.551,41.897c0.871,0,1.455,0.622,1.455,1.557c0,0.994-0.563,1.645-1.445,1.645c-0.826,0-1.422-0.68-1.422-1.645
		C49.137,42.575,49.757,41.897,50.551,41.897 M51.966,38.024v3.902c-0.429-0.491-0.899-0.709-1.509-0.709
		c-1.203,0-2.083,0.948-2.083,2.258c0,1.319,0.892,2.302,2.083,2.302c0.627,0,1.141-0.248,1.498-0.719v0.593h0.755v-7.627H51.966z"
		/>
	<path fill="#FFFFFF" stroke="#FFFFFF" stroke-width="0.2464" stroke-miterlimit="10" d="M97.846,28.042
		c-0.26-0.523-0.656-0.786-1.16-0.786c-0.756,0-1.298,0.514-1.298,1.216c0,0.573,0.251,0.827,1.255,1.268
		c0.547,0.23,0.701,0.388,0.701,0.72c0,0.391-0.301,0.682-0.701,0.682c-0.418,0-0.628-0.168-0.881-0.701l-0.656,0.273
		c0.282,0.742,0.793,1.108,1.527,1.108c0.825,0,1.476-0.618,1.476-1.414c0-0.658-0.263-0.932-1.308-1.371
		c-0.567-0.231-0.703-0.368-0.703-0.628c0-0.262,0.242-0.472,0.534-0.472c0.253,0,0.438,0.136,0.597,0.429L97.846,28.042z
		 M93.638,25.068l-0.775-0.345l-1.098,1.507l0.461,0.261L93.638,25.068z M90.969,29.047c0.105-0.649,0.648-1.121,1.275-1.121
		c0.641,0,1.142,0.438,1.279,1.121H90.969z M94.31,29.674v-0.146c0-1.359-0.829-2.271-2.065-2.271c-1.234,0-2.109,0.934-2.109,2.264
		c0,1.359,0.867,2.302,2.121,2.302c0.893,0,1.529-0.388,2.01-1.235l-0.628-0.355c-0.419,0.669-0.763,0.91-1.339,0.91
		c-0.785,0-1.342-0.575-1.383-1.467H94.31z M87.141,31.285l-1.404,2.86h0.838l3.213-6.794h-0.849l-1.402,3.107l-1.537-3.107h-0.86
		L87.141,31.285z M82.177,27.926c0.859,0,1.465,0.648,1.465,1.57c0,0.972-0.584,1.645-1.456,1.645c-0.825,0-1.423-0.69-1.423-1.653
		C80.763,28.605,81.382,27.926,82.177,27.926 M83.59,27.35v0.618c-0.431-0.502-0.893-0.722-1.507-0.722
		c-1.204,0-2.082,0.952-2.082,2.273c0,1.317,0.889,2.302,2.082,2.302c0.63,0,1.089-0.221,1.507-0.731v0.604h0.744V27.35H83.59z
		 M76.943,27.926c0.826,0,1.426,0.68,1.426,1.656c0,0.867-0.618,1.559-1.414,1.559c-0.849,0-1.465-0.661-1.465-1.573
		C75.488,28.596,76.083,27.926,76.943,27.926 M75.529,34.145V31.09c0.439,0.511,0.9,0.731,1.509,0.731
		c1.191,0,2.093-0.951,2.093-2.231c0-1.373-0.869-2.344-2.085-2.344c-0.628,0-1.098,0.22-1.517,0.722V27.35h-0.745v6.795H75.529z
		 M67.628,27.35v4.345h0.742V29.33c0-0.942,0.312-1.402,0.965-1.402c0.513,0,0.785,0.407,0.785,1.193v2.573h0.74v-2.406
		c0-0.911,0.316-1.36,0.955-1.36c0.556,0,0.797,0.334,0.797,1.13v2.637h0.742v-2.752c0-1.122-0.483-1.696-1.423-1.696
		c-0.576,0-1.025,0.241-1.288,0.702c-0.251-0.451-0.671-0.702-1.194-0.702c-0.461,0-0.774,0.167-1.079,0.574v-0.472L67.628,27.35
		L67.628,27.35z M65.824,25.174c-0.293,0-0.531,0.24-0.531,0.534c0,0.293,0.24,0.531,0.531,0.531c0.292,0,0.535-0.239,0.535-0.531
		C66.359,25.414,66.116,25.174,65.824,25.174 M66.192,27.35h-0.743v4.345h0.743V27.35z M61.568,28.042
		c-0.265-0.523-0.663-0.786-1.165-0.786c-0.755,0-1.302,0.514-1.302,1.216c0,0.573,0.254,0.827,1.261,1.268
		c0.543,0.23,0.703,0.388,0.703,0.72c0,0.391-0.304,0.682-0.703,0.682c-0.422,0-0.631-0.168-0.882-0.701l-0.658,0.273
		c0.279,0.742,0.797,1.108,1.531,1.108c0.822,0,1.473-0.618,1.473-1.414c0-0.658-0.258-0.932-1.309-1.371
		c-0.565-0.231-0.701-0.368-0.701-0.628c0-0.262,0.24-0.472,0.534-0.472c0.249,0,0.44,0.136,0.596,0.429L61.568,28.042z
		 M54.688,29.047c0.106-0.649,0.649-1.121,1.276-1.121c0.641,0,1.143,0.438,1.279,1.121H54.688z M58.027,29.674v-0.146
		c0-1.359-0.83-2.271-2.063-2.271c-1.235,0-2.114,0.934-2.114,2.264c0,1.359,0.867,2.302,2.128,2.302
		c0.89,0,1.525-0.388,2.009-1.235l-0.629-0.355c-0.42,0.669-0.765,0.91-1.339,0.91c-0.786,0-1.341-0.575-1.384-1.467H58.027z
		 M50.551,27.937c0.871,0,1.455,0.626,1.455,1.56c0,0.998-0.563,1.645-1.445,1.645c-0.826,0-1.422-0.682-1.422-1.645
		C49.137,28.617,49.757,27.937,50.551,27.937 M51.966,24.06v3.907c-0.429-0.492-0.899-0.712-1.509-0.712
		c-1.203,0-2.083,0.952-2.083,2.263c0,1.319,0.892,2.302,2.083,2.302c0.627,0,1.141-0.252,1.498-0.722v0.597h0.755V24.06H51.966z"/>
	<path fill="#FFFFFF" stroke="#FFFFFF" stroke-width="0.2464" stroke-miterlimit="10" d="M154.419,14.082h0.776v-0.689h-0.776V11.82
		h-0.741v1.572h-0.451v0.689h0.451v3.653h0.741V14.082z M148.769,13.393v4.343h0.743v-2.166c0-1.13,0.322-1.614,1.076-1.614
		c0.684,0,0.922,0.326,0.922,1.216v2.564h0.744v-2.69c0-0.563-0.072-0.89-0.243-1.161c-0.237-0.367-0.718-0.596-1.243-0.596
		c-0.544,0-0.879,0.166-1.256,0.627v-0.523L148.769,13.393L148.769,13.393z M144.288,15.087c0.104-0.647,0.649-1.121,1.274-1.121
		c0.643,0,1.143,0.438,1.278,1.121H144.288z M147.627,15.715v-0.146c0-1.362-0.827-2.272-2.064-2.272
		c-1.235,0-2.111,0.931-2.111,2.263c0,1.361,0.868,2.304,2.122,2.304c0.89,0,1.53-0.389,2.012-1.235l-0.628-0.357
		c-0.42,0.671-0.766,0.913-1.341,0.913c-0.785,0-1.339-0.576-1.378-1.467h3.389V15.715z M136.615,13.393v4.343h0.741v-2.363
		c0-0.944,0.313-1.405,0.964-1.405c0.514,0,0.785,0.408,0.785,1.194v2.575h0.742v-2.408c0-0.912,0.314-1.361,0.952-1.361
		c0.556,0,0.798,0.337,0.798,1.132v2.638h0.742v-2.757c0-1.119-0.48-1.691-1.423-1.691c-0.575,0-1.026,0.24-1.288,0.7
		c-0.25-0.449-0.671-0.7-1.195-0.7c-0.46,0-0.771,0.166-1.077,0.574v-0.47H136.615z M132.135,15.087
		c0.105-0.647,0.647-1.121,1.277-1.121c0.635,0,1.138,0.438,1.274,1.121H132.135z M135.473,15.715v-0.146
		c0-1.362-0.827-2.272-2.061-2.272c-1.236,0-2.116,0.931-2.116,2.263c0,1.361,0.868,2.304,2.125,2.304
		c0.89,0,1.528-0.389,2.008-1.235l-0.624-0.357c-0.422,0.671-0.765,0.913-1.34,0.913c-0.788,0-1.342-0.576-1.385-1.467h3.393V15.715
		z M128.617,13.393v4.343h0.742v-2.293c0-1.016,0.249-1.444,0.855-1.444c0.16,0,0.251,0.031,0.44,0.148L131,13.476
		c-0.263-0.146-0.419-0.188-0.66-0.188c-0.407,0-0.598,0.116-0.983,0.574v-0.47H128.617z M124.398,13.393h-0.838l2.134,4.637
		l2.124-4.637h-0.837l-1.287,2.919L124.398,13.393z M120.059,13.393h-0.736v2.618c0,0.636,0.104,0.983,0.395,1.309
		c0.314,0.355,0.783,0.544,1.33,0.544c0.534,0,1.005-0.188,1.322-0.544c0.287-0.325,0.395-0.671,0.395-1.309v-2.618h-0.742v2.532
		c0,0.881-0.297,1.259-0.977,1.259c-0.69,0-0.986-0.378-0.986-1.259V13.393L120.059,13.393z M115.863,13.978
		c0.912,0,1.55,0.661,1.55,1.602c0,0.933-0.647,1.604-1.55,1.604c-0.868,0-1.519-0.682-1.519-1.604S114.983,13.978,115.863,13.978
		 M115.875,13.297c-1.279,0-2.294,1.016-2.294,2.282c0,1.268,1.015,2.282,2.294,2.282c1.3,0,2.302-0.995,2.302-2.282
		C118.177,14.291,117.175,13.297,115.875,13.297 M112.689,13.705c-0.449-0.294-0.834-0.408-1.338-0.408
		c-1.32,0-2.321,0.994-2.321,2.294c0,1.275,1.001,2.272,2.3,2.272c0.504,0,0.859-0.115,1.393-0.449v-0.985
		c-0.502,0.565-0.856,0.755-1.434,0.755c-0.836,0-1.498-0.702-1.498-1.604c0-0.91,0.663-1.602,1.53-1.602
		c0.534,0,0.89,0.19,1.368,0.712V13.705L112.689,13.705z M104.83,15.087c0.104-0.647,0.649-1.121,1.277-1.121
		c0.638,0,1.14,0.438,1.276,1.121H104.83z M108.17,15.715v-0.146c0-1.362-0.828-2.272-2.062-2.272s-2.112,0.931-2.112,2.263
		c0,1.361,0.868,2.304,2.123,2.304c0.892,0,1.53-0.389,2.011-1.235l-0.629-0.357c-0.418,0.671-0.763,0.913-1.34,0.913
		c-0.785,0-1.34-0.576-1.384-1.467h3.394V15.715z M101.312,13.393v4.343h0.743v-2.293c0-1.016,0.25-1.444,0.861-1.444
		c0.154,0,0.25,0.031,0.436,0.148l0.346-0.671c-0.263-0.146-0.42-0.188-0.662-0.188c-0.405,0-0.595,0.116-0.982,0.574v-0.47H101.312
		z M94.214,15.087c0.105-0.647,0.65-1.121,1.278-1.121c0.637,0,1.141,0.438,1.276,1.121H94.214z M97.554,15.715v-0.146
		c0-1.362-0.826-2.272-2.062-2.272s-2.114,0.931-2.114,2.263c0,1.361,0.868,2.304,2.125,2.304c0.888,0,1.528-0.389,2.008-1.235
		l-0.626-0.357c-0.42,0.671-0.766,0.913-1.341,0.913c-0.785,0-1.34-0.576-1.382-1.467h3.392V15.715z M90.081,13.978
		c0.867,0,1.454,0.627,1.454,1.562c0,0.993-0.566,1.644-1.445,1.644c-0.826,0-1.424-0.682-1.424-1.644
		C88.666,14.657,89.286,13.978,90.081,13.978 M91.494,10.105v3.901c-0.43-0.49-0.904-0.711-1.508-0.711
		c-1.204,0-2.084,0.954-2.084,2.263c0,1.318,0.889,2.303,2.084,2.303c0.628,0,1.138-0.252,1.496-0.722v0.596h0.752v-7.63H91.494z
		 M81.076,15.087c0.105-0.647,0.65-1.121,1.275-1.121c0.641,0,1.143,0.438,1.278,1.121H81.076z M84.416,15.715v-0.146
		c0-1.362-0.826-2.272-2.064-2.272c-1.235,0-2.112,0.931-2.112,2.263c0,1.361,0.868,2.304,2.124,2.304
		c0.891,0,1.53-0.389,2.009-1.235l-0.624-0.357c-0.424,0.671-0.765,0.913-1.342,0.913c-0.786,0-1.338-0.576-1.381-1.467h3.391
		V15.715z M79.347,13.705c-0.448-0.294-0.837-0.408-1.339-0.408c-1.316,0-2.32,0.994-2.32,2.294c0,1.275,1.004,2.272,2.302,2.272
		c0.503,0,0.858-0.115,1.391-0.449v-0.985c-0.504,0.565-0.856,0.755-1.435,0.755c-0.834,0-1.495-0.702-1.495-1.604
		c0-0.91,0.661-1.602,1.53-1.602c0.529,0,0.89,0.19,1.369,0.712v-0.985H79.347z M71.057,13.393v4.343h0.745v-2.166
		c0-1.13,0.323-1.614,1.079-1.614c0.679,0,0.921,0.326,0.921,1.216v2.564h0.744v-2.69c0-0.563-0.075-0.89-0.24-1.161
		c-0.242-0.367-0.724-0.596-1.25-0.596c-0.54,0-0.878,0.166-1.254,0.627v-0.523L71.057,13.393L71.057,13.393z M66.577,15.087
		c0.104-0.647,0.648-1.121,1.275-1.121c0.639,0,1.143,0.438,1.278,1.121H66.577z M69.917,15.715v-0.146
		c0-1.362-0.826-2.272-2.063-2.272c-1.234,0-2.112,0.931-2.112,2.263c0,1.361,0.868,2.304,2.127,2.304
		c0.889,0,1.528-0.389,2.007-1.235l-0.629-0.357c-0.419,0.671-0.763,0.913-1.339,0.913c-0.784,0-1.339-0.576-1.381-1.467h3.391
		V15.715z M62.381,13.966c0.85,0,1.445,0.661,1.445,1.604c0,0.932-0.607,1.601-1.445,1.601c-0.84,0-1.426-0.66-1.426-1.601
		C60.955,14.639,61.553,13.966,62.381,13.966 M64.537,13.393h-0.744v0.615c-0.42-0.49-0.887-0.719-1.496-0.719
		c-1.215,0-2.105,0.972-2.105,2.291c0,1.299,0.893,2.272,2.074,2.272c0.586,0,1.108-0.241,1.529-0.723v0.636
		c0,1.122-0.48,1.708-1.393,1.708c-0.838,0-1.318-0.459-1.394-1.308h-0.731c0.041,1.225,0.854,1.989,2.114,1.989
		c0.721,0,1.351-0.294,1.726-0.805c0.315-0.431,0.42-0.848,0.42-1.706V13.393L64.537,13.393z M52.644,10.41l-0.868,2.408
		l0.506,0.198l1.042-2.356L52.644,10.41z M49.632,10.753h-0.786v6.982h2.701v-0.722h-1.915V10.753L49.632,10.753z"/>
	<path fill="#FFFFFF" stroke="#FFFFFF" stroke-width="0.2464" stroke-miterlimit="10" d="M56.739,14.063
		c0.858,0,1.465,0.649,1.465,1.57c0,0.975-0.585,1.644-1.452,1.644c-0.829,0-1.424-0.691-1.424-1.656
		C55.328,14.742,55.943,14.063,56.739,14.063 M58.152,13.487v0.617c-0.428-0.502-0.889-0.719-1.507-0.719
		c-1.204,0-2.084,0.951-2.084,2.269c0,1.32,0.89,2.304,2.084,2.304c0.627,0,1.09-0.218,1.507-0.731v0.606h0.744V13.49h-0.744V13.487
		z"/>
</g>
</svg>
